{"glyphs":{"0":{"ha":745,"x_min":56,"x_max":689,"o":"m 290 515 l 290 439 q 308 213 290 260 q 372 165 325 165 q 437 213 419 165 q 454 439 454 260 l 454 515 l 454 608 q 437 821 454 776 q 372 867 419 867 q 308 820 325 867 q 290 591 290 772 l 290 515 m 56 515 q 67 796 56 711 q 107 925 79 881 q 215 1019 146 986 q 372 1051 283 1051 q 530 1018 462 1051 q 637 924 599 985 q 677 799 665 879 q 689 561 689 718 q 683 305 689 390 q 664 165 677 220 q 563 31 644 82 q 372 -21 483 -21 q 212 13 281 -21 q 103 111 142 47 q 66 240 77 153 q 56 515 56 328 z "},"1":{"ha":745,"x_min":90,"x_max":532,"o":"m 298 0 l 298 721 l 90 721 l 90 880 l 102 880 q 281 923 214 880 q 371 1051 349 966 l 532 1051 l 532 0 l 298 0 z "},"2":{"ha":745,"x_min":49,"x_max":675,"o":"m 49 0 l 49 17 q 62 135 49 77 q 103 252 75 193 q 280 496 159 374 q 306 522 298 514 l 312 529 q 444 772 444 668 q 425 846 444 821 q 371 872 406 872 q 298 830 321 872 q 275 696 275 788 l 275 677 l 58 677 l 58 705 q 141 963 58 873 q 378 1053 223 1053 q 596 975 517 1053 q 675 761 675 898 q 641 607 675 680 q 534 460 607 534 q 488 413 519 444 q 326 205 359 288 l 672 205 l 672 0 l 49 0 z "},"3":{"ha":745,"x_min":58,"x_max":690,"o":"m 60 346 l 277 346 q 299 204 280 246 q 361 161 319 161 q 424 200 403 161 q 446 313 446 238 q 407 427 446 392 q 281 461 369 461 q 259 461 267 461 q 246 460 252 460 l 245 624 l 268 624 q 392 657 354 624 q 429 768 429 691 q 412 847 429 819 q 361 875 394 875 q 303 843 320 875 q 283 724 286 810 l 69 724 l 69 737 q 150 968 69 885 q 374 1051 231 1051 q 584 977 503 1051 q 665 786 665 903 q 628 651 665 709 q 517 553 591 593 q 648 456 606 518 q 690 300 690 395 q 606 64 690 149 q 370 -21 521 -21 q 140 67 222 -21 q 58 315 58 155 q 59 331 58 320 q 60 346 60 341 z "},"4":{"ha":745,"x_min":43,"x_max":701,"o":"m 414 380 l 414 799 l 224 380 l 414 380 m 387 0 l 387 201 l 43 201 l 43 399 l 372 1032 l 611 1032 l 611 380 l 701 380 l 701 201 l 611 201 l 611 0 l 387 0 z "},"5":{"ha":745,"x_min":65,"x_max":679,"o":"m 65 321 l 281 321 q 303 197 284 232 q 367 161 322 161 q 434 199 414 161 q 454 326 454 237 q 434 498 454 455 q 359 541 413 541 q 306 522 328 541 q 273 467 285 504 l 79 467 l 98 1034 l 637 1034 l 637 846 l 277 846 l 269 656 q 354 697 311 684 q 444 711 397 711 q 621 623 564 711 q 679 355 679 535 q 601 71 679 166 q 370 -24 524 -24 q 143 60 222 -24 q 65 301 65 144 l 65 321 z "},"6":{"ha":745,"x_min":60,"x_max":686,"o":"m 301 636 q 377 673 338 661 q 457 685 415 685 q 629 603 572 685 q 686 355 686 520 q 609 73 686 166 q 376 -21 532 -21 q 243 1 301 -21 q 143 66 185 22 q 78 199 97 115 q 60 504 60 283 q 70 770 60 686 q 103 905 79 854 q 208 1014 136 977 q 382 1051 279 1051 q 595 982 519 1051 q 671 787 671 912 l 671 781 l 449 781 q 430 854 448 830 q 378 879 412 879 q 318 842 336 879 q 300 710 300 804 q 300 666 300 681 q 301 636 300 650 m 294 330 q 313 197 294 235 q 378 158 332 158 q 434 195 418 158 q 450 335 450 233 q 432 472 450 435 q 370 509 414 509 q 311 470 328 509 q 294 330 294 432 z "},"7":{"ha":745,"x_min":62,"x_max":673,"o":"m 184 0 q 270 391 203 183 q 450 827 336 599 l 62 827 l 62 1032 l 673 1032 l 673 854 q 514 465 577 683 q 425 0 450 248 l 184 0 z "},"8":{"ha":745,"x_min":64,"x_max":681,"o":"m 293 766 q 315 675 293 709 q 374 640 338 640 q 433 675 410 640 q 456 766 456 709 q 434 854 456 823 q 374 885 413 885 q 314 854 335 885 q 293 766 293 823 m 289 313 q 310 198 289 236 q 372 160 330 160 q 436 197 416 160 q 457 313 457 233 q 437 432 457 395 q 374 469 417 469 q 309 432 330 469 q 289 313 289 395 m 192 558 q 107 650 136 596 q 79 775 79 704 q 157 978 79 905 q 372 1051 235 1051 q 588 978 510 1051 q 665 775 665 905 q 637 650 665 704 q 553 558 609 596 q 648 452 615 519 q 681 293 681 385 q 599 62 681 144 q 371 -21 517 -21 q 145 62 226 -21 q 64 293 64 145 q 96 452 64 385 q 192 558 129 519 z "},"9":{"ha":745,"x_min":54,"x_max":679,"o":"m 437 394 q 360 358 399 370 q 282 346 322 346 q 111 427 167 346 q 54 672 54 507 q 131 957 54 863 q 363 1051 207 1051 q 496 1029 438 1051 q 596 964 554 1008 q 660 829 642 915 q 679 526 679 743 q 669 256 679 337 q 636 125 659 175 q 532 17 604 54 q 357 -21 460 -21 q 143 50 219 -21 q 68 250 68 120 l 290 250 q 309 176 292 201 q 361 151 327 151 q 421 189 404 151 q 439 321 439 227 q 438 365 439 349 q 437 394 438 381 m 443 700 q 424 833 443 794 q 361 872 406 872 q 305 834 321 872 q 289 696 289 795 q 307 561 289 600 q 367 522 324 522 q 426 558 410 522 q 443 700 443 594 z "}," ":{"ha":372,"x_min":0,"x_max":0,"o":""},"!":{"ha":460,"x_min":109,"x_max":351,"o":"m 170 345 l 109 768 l 109 1044 l 351 1044 l 351 768 l 296 345 l 170 345 m 113 0 l 113 239 l 351 239 l 351 0 l 113 0 z "},"\"":{"ha":514,"x_min":46,"x_max":468,"o":"m 468 977 l 468 595 l 292 595 l 292 977 l 468 977 m 221 977 l 221 595 l 46 595 l 46 977 l 221 977 z "},"#":{"ha":1068,"x_min":-4,"x_max":1072,"o":"m 642 566 l 479 566 l 427 421 l 589 421 l 642 566 m 636 997 l 549 749 l 703 749 l 790 997 l 986 997 l 899 749 l 1072 749 l 1004 566 l 833 566 l 782 421 l 957 421 l 889 237 l 717 237 l 628 -11 l 432 -11 l 521 237 l 367 237 l 278 -11 l 82 -11 l 171 237 l -4 237 l 64 421 l 236 421 l 286 566 l 111 566 l 178 749 l 353 749 l 440 997 l 636 997 z "},"$":{"ha":745,"x_min":45,"x_max":692,"o":"m 403 172 q 470 210 448 182 q 493 286 493 239 q 472 350 493 323 q 403 397 451 376 l 403 172 m 330 664 l 330 864 q 269 832 290 857 q 248 770 248 808 q 269 710 248 738 q 330 664 290 683 m 301 -126 l 301 8 q 110 101 176 20 q 45 329 45 183 l 45 334 l 235 334 q 234 321 235 329 q 233 310 233 313 q 256 215 233 248 q 325 171 278 181 l 325 428 q 127 556 194 475 q 61 747 61 637 q 124 936 61 863 q 301 1023 188 1009 l 301 1112 l 429 1112 l 429 1025 q 614 938 551 1011 q 680 736 677 865 l 494 736 q 470 832 490 801 q 410 863 449 863 l 407 863 l 407 629 q 627 496 562 572 q 692 298 692 420 q 625 97 692 171 q 429 8 559 24 l 429 -126 l 301 -126 z "},"%":{"ha":1147,"x_min":54,"x_max":1093,"o":"m 804 253 q 818 142 804 173 q 867 111 832 111 q 916 143 901 111 q 930 253 930 174 q 916 364 930 332 q 867 396 901 396 q 818 365 832 396 q 804 253 804 333 m 640 253 q 693 464 640 401 q 867 526 745 526 q 1041 464 988 526 q 1093 253 1093 401 q 1041 43 1093 105 q 867 -20 989 -20 q 692 43 745 -20 q 640 253 640 105 m 257 -20 l 758 1051 l 890 1051 l 390 -20 l 257 -20 m 218 779 q 232 668 218 699 q 281 636 246 636 q 329 668 315 636 q 343 779 343 699 q 329 890 343 859 q 281 921 315 921 q 232 890 246 921 q 218 779 218 859 m 54 779 q 106 989 54 926 q 281 1051 159 1051 q 455 989 403 1051 q 507 779 507 926 q 455 568 507 631 q 281 505 402 505 q 106 568 159 505 q 54 779 54 631 z "},"&":{"ha":920,"x_min":62,"x_max":888,"o":"m 416 732 q 475 788 456 758 q 494 850 494 817 q 476 897 494 879 q 428 914 458 914 q 382 897 399 914 q 366 851 366 880 q 377 796 366 823 q 416 732 389 768 m 501 212 l 349 454 q 295 383 313 419 q 278 307 278 347 q 313 207 278 245 q 403 168 347 168 q 448 179 424 168 q 501 212 472 190 m 643 0 l 604 53 q 493 -6 551 14 q 370 -25 435 -25 q 147 61 232 -25 q 62 285 62 147 q 107 464 62 385 q 250 619 151 543 q 193 730 212 676 q 174 833 174 783 q 248 1004 174 937 q 437 1071 322 1071 q 623 1010 553 1071 q 693 847 693 949 q 651 702 693 766 q 522 583 610 637 l 625 416 q 648 486 640 451 q 659 554 656 520 l 840 554 q 812 389 837 470 q 743 229 788 307 l 888 0 l 643 0 z "},"'":{"ha":267,"x_min":46,"x_max":221,"o":"m 221 977 l 221 595 l 46 595 l 46 977 l 221 977 z "},"(":{"ha":467,"x_min":106,"x_max":433,"o":"m 425 -264 l 256 -264 q 142 65 179 -96 q 106 390 106 227 q 145 727 106 565 q 264 1046 184 888 l 433 1046 q 343 727 373 888 q 313 399 313 565 q 341 72 313 237 q 425 -264 369 -94 z "},")":{"ha":467,"x_min":41,"x_max":370,"o":"m 49 -264 q 134 74 106 -92 q 163 399 163 239 q 133 727 163 565 q 41 1046 102 888 l 211 1046 q 331 727 292 888 q 370 390 370 565 q 333 65 370 227 q 220 -264 296 -96 l 49 -264 z "},"*":{"ha":694,"x_min":53,"x_max":642,"o":"m 346 650 l 228 482 l 111 562 l 243 726 l 53 779 l 97 917 l 278 851 l 278 1044 l 414 1044 l 414 851 l 595 916 l 642 777 l 450 726 l 581 564 l 463 479 l 346 650 z "},"+":{"ha":1157,"x_min":172,"x_max":985,"o":"m 673 828 l 673 507 l 985 507 l 985 322 l 673 322 l 673 0 l 484 0 l 484 322 l 172 322 l 172 507 l 484 507 l 484 828 l 673 828 z "},",":{"ha":374,"x_min":68,"x_max":307,"o":"m 68 0 l 68 239 l 307 239 l 307 50 q 252 -148 307 -86 q 69 -218 197 -210 l 69 -134 q 165 -94 132 -128 q 197 0 197 -60 l 68 0 z "},"-":{"ha":541,"x_min":58,"x_max":482,"o":"m 58 288 l 58 497 l 482 497 l 482 288 l 58 288 z "},".":{"ha":374,"x_min":66,"x_max":307,"o":"m 66 0 l 66 239 l 307 239 l 307 0 l 66 0 z "},"/":{"ha":376,"x_min":-49,"x_max":397,"o":"m 66 -129 l -49 -129 l 282 1069 l 397 1069 l 66 -129 z "},":":{"ha":406,"x_min":82,"x_max":322,"o":"m 82 534 l 82 774 l 322 774 l 322 534 l 82 534 m 82 0 l 82 239 l 322 239 l 322 0 l 82 0 z "},";":{"ha":406,"x_min":83,"x_max":322,"o":"m 83 534 l 83 774 l 322 774 l 322 534 l 83 534 m 83 0 l 83 239 l 322 239 l 322 50 q 267 -148 322 -86 q 85 -218 212 -210 l 85 -134 q 180 -94 147 -128 q 212 0 212 -60 l 83 0 z "},"<":{"ha":1157,"x_min":179,"x_max":978,"o":"m 978 636 l 435 414 l 978 192 l 978 -11 l 179 319 l 179 510 l 978 840 l 978 636 z "},"=":{"ha":1157,"x_min":172,"x_max":985,"o":"m 985 347 l 985 163 l 172 163 l 172 347 l 985 347 m 985 667 l 985 482 l 172 482 l 172 667 l 985 667 z "},">":{"ha":1157,"x_min":179,"x_max":978,"o":"m 978 510 l 978 319 l 179 -11 l 179 192 l 722 414 l 179 636 l 179 840 l 978 510 z "},"?":{"ha":685,"x_min":37,"x_max":648,"o":"m 447 237 l 447 0 l 210 0 l 210 237 l 447 237 m 252 729 l 37 729 l 37 736 q 119 968 37 888 q 355 1048 201 1048 q 570 981 491 1048 q 648 799 648 913 q 621 676 648 737 q 519 519 594 614 q 511 509 517 516 q 432 340 432 407 l 432 329 l 225 330 q 222 353 223 341 q 221 378 221 366 q 243 484 221 433 q 334 621 264 534 l 338 626 q 411 779 411 716 q 391 849 411 824 q 334 873 370 873 q 273 841 295 873 q 250 753 250 809 q 251 741 250 749 q 252 729 252 733 z "},"@":{"ha":1389,"x_min":47,"x_max":1341,"o":"m 842 618 l 875 673 l 1039 673 l 933 248 q 931 236 932 240 q 930 228 930 231 q 939 203 930 212 q 962 195 947 195 q 1119 291 1049 195 q 1189 515 1189 387 q 1070 774 1189 675 q 757 872 952 872 q 576 848 661 872 q 424 777 492 824 q 262 594 319 703 q 205 357 205 485 q 341 39 205 157 q 704 -79 476 -79 q 912 -47 812 -79 q 1101 47 1013 -16 l 1179 -61 q 947 -184 1068 -144 q 689 -224 827 -224 q 448 -187 562 -224 q 249 -81 335 -150 q 98 109 148 0 q 47 353 47 217 q 85 578 47 472 q 196 771 123 684 q 441 955 297 891 q 754 1019 585 1019 q 1179 880 1016 1019 q 1341 518 1341 740 q 1295 305 1341 402 q 1162 140 1249 208 q 1058 83 1115 103 q 940 64 1002 64 q 827 90 866 64 q 782 168 788 115 q 695 90 742 114 q 586 65 649 65 q 411 125 470 65 q 353 302 353 184 q 450 582 353 470 q 692 693 547 693 q 780 674 742 693 q 842 618 819 655 m 764 335 l 795 467 q 767 538 791 513 q 705 564 743 564 q 592 485 641 564 q 543 298 543 406 q 564 223 543 250 q 623 196 585 196 q 710 234 671 196 q 764 335 749 271 z "},"A":{"ha":764,"x_min":9,"x_max":753,"o":"m 311 389 l 452 389 l 382 844 l 311 389 m 9 0 l 237 1044 l 528 1044 l 753 0 l 509 0 l 478 200 l 286 200 l 256 0 l 9 0 z "},"B":{"ha":806,"x_min":85,"x_max":750,"o":"m 329 636 l 345 636 q 451 666 416 636 q 485 760 485 696 q 451 844 485 814 q 354 873 417 873 q 338 873 344 873 q 330 872 333 873 l 329 636 m 329 184 l 350 184 q 465 220 427 184 q 504 328 504 256 q 466 425 504 394 q 346 456 428 456 l 329 456 l 329 184 m 85 0 l 85 1044 l 347 1044 q 518 1035 467 1044 q 608 1003 570 1025 q 693 913 665 969 q 722 782 722 858 q 695 661 722 714 q 610 558 669 608 q 715 462 680 523 q 750 317 750 401 q 726 184 750 247 q 660 78 703 122 q 559 18 619 35 q 375 0 500 0 l 85 0 z "},"C":{"ha":828,"x_min":64,"x_max":754,"o":"m 513 404 l 753 404 q 754 384 753 395 q 754 351 754 373 q 670 67 754 160 q 414 -25 587 -25 q 239 9 312 -25 q 122 111 167 43 q 77 247 91 160 q 64 522 64 334 q 77 798 64 711 q 122 933 91 884 q 238 1035 166 1001 q 410 1069 310 1069 q 667 974 581 1069 q 753 689 753 879 l 753 679 l 515 680 q 491 829 514 786 q 414 872 468 872 q 333 820 355 872 q 311 542 311 767 l 311 522 q 333 225 311 280 q 414 171 355 171 q 491 211 469 171 q 513 358 513 250 l 513 404 z "},"D":{"ha":810,"x_min":85,"x_max":746,"o":"m 330 850 l 330 191 q 345 189 338 189 q 366 189 351 189 q 431 200 405 189 q 473 235 457 211 q 492 308 487 254 q 497 521 497 362 l 497 568 q 492 744 497 699 q 475 807 488 790 q 433 840 460 829 q 363 851 406 851 q 343 851 350 851 q 330 850 336 850 m 85 0 l 85 1044 l 354 1044 q 573 1019 502 1044 q 686 932 644 994 q 732 807 719 884 q 746 522 746 731 q 732 237 746 313 q 686 113 719 161 q 573 25 644 51 q 354 0 502 0 l 85 0 z "},"E":{"ha":720,"x_min":85,"x_max":653,"o":"m 85 0 l 85 1044 l 653 1044 l 653 842 l 328 842 l 328 650 l 628 650 l 628 440 l 328 440 l 328 212 l 653 212 l 653 0 l 85 0 z "},"F":{"ha":713,"x_min":85,"x_max":654,"o":"m 85 0 l 85 1044 l 654 1044 l 654 842 l 330 842 l 330 652 l 631 652 l 631 441 l 330 441 l 330 0 l 85 0 z "},"G":{"ha":800,"x_min":64,"x_max":726,"o":"m 726 572 l 726 0 l 558 0 l 547 65 q 466 2 511 23 q 366 -18 422 -18 q 248 5 302 -18 q 154 74 194 29 q 84 222 104 129 q 64 536 64 315 q 78 789 64 694 q 122 932 92 884 q 237 1035 165 1000 q 407 1069 309 1069 q 639 986 561 1069 q 717 736 717 902 q 716 717 717 730 q 715 697 715 705 l 484 697 l 484 710 q 464 839 484 800 q 401 878 445 878 q 331 830 350 878 q 311 608 311 783 l 311 505 l 311 433 q 330 214 311 259 q 397 168 348 168 q 469 208 447 168 q 492 338 492 248 q 491 369 492 358 q 490 390 491 380 l 395 390 l 395 572 l 726 572 z "},"H":{"ha":848,"x_min":85,"x_max":764,"o":"m 85 0 l 85 1044 l 329 1044 l 329 650 l 525 650 l 525 1044 l 764 1044 l 764 0 l 525 0 l 525 433 l 329 433 l 329 0 l 85 0 z "},"I":{"ha":414,"x_min":85,"x_max":329,"o":"m 85 0 l 85 1044 l 329 1044 l 329 0 l 85 0 z "},"J":{"ha":675,"x_min":12,"x_max":587,"o":"m 14 351 l 239 351 q 251 191 239 220 q 294 161 262 161 q 332 180 321 161 q 343 260 343 199 l 343 1044 l 587 1044 l 587 357 q 579 183 587 240 q 551 90 571 127 q 459 4 520 33 q 309 -25 398 -25 q 81 50 149 -25 q 12 298 12 124 q 13 331 12 320 q 14 351 13 342 z "},"K":{"ha":750,"x_min":85,"x_max":766,"o":"m 85 0 l 85 1044 l 329 1044 l 329 611 l 511 1044 l 761 1044 l 534 587 l 766 0 l 510 0 l 382 378 l 329 278 l 329 0 l 85 0 z "},"L":{"ha":646,"x_min":85,"x_max":623,"o":"m 623 0 l 85 0 l 85 1044 l 329 1044 l 329 211 l 623 211 l 623 0 z "},"M":{"ha":1108,"x_min":85,"x_max":1021,"o":"m 85 0 l 85 1044 l 427 1044 l 519 600 q 531 516 520 597 q 553 355 541 436 q 575 505 562 416 q 590 604 588 594 l 682 1044 l 1021 1044 l 1021 0 l 790 0 l 811 807 l 646 0 l 460 0 l 294 807 l 315 0 l 85 0 z "},"N":{"ha":822,"x_min":85,"x_max":736,"o":"m 85 0 l 85 1044 l 339 1044 l 542 400 q 524 681 530 563 q 518 880 518 799 l 518 1044 l 736 1044 l 736 0 l 481 0 l 277 664 q 297 413 290 534 q 304 176 304 291 l 304 0 l 85 0 z "},"O":{"ha":828,"x_min":64,"x_max":764,"o":"m 514 428 l 514 616 q 492 831 514 790 q 412 872 470 872 q 334 830 356 872 q 313 616 313 788 l 313 428 q 334 215 313 258 q 414 172 356 172 q 492 214 471 172 q 514 428 514 256 m 64 522 q 77 798 64 711 q 122 933 91 884 q 239 1036 167 1002 q 414 1069 312 1069 q 588 1036 516 1069 q 704 933 659 1002 q 750 797 736 884 q 764 522 764 710 q 750 248 764 335 q 704 111 736 161 q 588 9 660 43 q 414 -25 515 -25 q 239 9 312 -25 q 122 111 167 43 q 77 247 91 160 q 64 522 64 334 z "},"P":{"ha":791,"x_min":85,"x_max":746,"o":"m 330 595 q 343 593 336 594 q 363 593 350 593 q 469 627 436 593 q 501 737 501 661 q 467 828 501 800 q 351 856 432 856 l 330 856 l 330 595 m 85 0 l 85 1044 l 325 1044 q 521 1033 458 1044 q 628 994 585 1021 q 716 889 686 959 q 746 724 746 820 q 662 483 746 565 q 416 400 578 400 l 330 400 l 330 0 l 85 0 z "},"Q":{"ha":828,"x_min":62,"x_max":764,"o":"m 513 428 l 513 616 q 491 831 513 790 q 411 872 469 872 q 333 830 355 872 q 311 616 311 788 l 311 428 q 333 215 311 258 q 412 172 355 172 q 491 214 469 172 q 513 428 513 256 m 462 -24 q 426 -27 444 -26 q 390 -28 408 -28 q 256 -5 314 -28 q 157 61 197 17 q 84 205 105 117 q 62 522 62 294 q 76 799 62 711 q 121 933 89 886 q 237 1035 165 1002 q 412 1068 309 1068 q 587 1035 515 1068 q 703 933 659 1002 q 749 791 735 884 q 764 522 764 699 q 738 195 764 289 q 650 52 713 101 l 736 -41 l 596 -171 l 462 -24 z "},"R":{"ha":814,"x_min":85,"x_max":793,"o":"m 326 610 q 342 609 332 610 q 357 608 352 608 q 464 639 433 608 q 496 742 496 669 q 464 837 496 809 q 357 865 433 865 q 342 865 352 865 q 326 864 332 864 l 326 610 m 85 0 l 85 1044 l 359 1044 q 555 1032 494 1044 q 654 989 616 1019 q 721 899 699 952 q 743 771 743 845 q 712 620 743 681 q 614 519 680 559 q 733 281 727 469 l 733 278 q 734 221 734 258 q 793 0 737 45 l 507 0 q 493 68 498 33 q 489 144 489 104 q 490 205 489 170 q 492 252 492 241 q 467 382 492 347 q 376 418 441 418 l 326 418 l 326 0 l 85 0 z "},"S":{"ha":729,"x_min":50,"x_max":682,"o":"m 53 354 l 277 354 l 277 323 q 297 202 277 237 q 366 167 317 167 q 427 194 404 167 q 449 267 449 220 q 340 412 449 342 q 313 431 322 425 l 301 438 q 118 587 154 537 q 79 673 92 625 q 65 777 65 720 q 144 991 65 913 q 363 1069 224 1069 q 594 993 514 1069 q 673 771 673 916 q 673 754 673 765 q 672 737 672 743 l 453 737 l 453 750 q 432 854 453 819 q 370 889 410 889 q 314 864 335 889 q 293 799 293 840 q 412 658 293 732 q 446 636 434 644 q 472 619 455 631 q 636 482 600 538 q 670 400 659 446 q 682 301 682 355 q 601 60 682 144 q 368 -25 519 -25 q 130 56 210 -25 q 50 297 50 137 q 51 318 50 307 q 53 354 51 330 z "},"T":{"ha":677,"x_min":17,"x_max":663,"o":"m 212 0 l 212 842 l 17 842 l 17 1044 l 663 1044 l 663 842 l 457 842 l 457 0 l 212 0 z "},"U":{"ha":828,"x_min":85,"x_max":743,"o":"m 85 1044 l 332 1044 l 332 390 q 350 206 332 241 q 416 171 369 171 q 483 208 465 171 q 501 390 501 244 l 501 1044 l 743 1044 l 743 378 q 733 209 743 264 q 701 111 724 153 q 593 8 664 41 q 410 -25 523 -25 q 239 6 305 -25 q 135 104 174 37 q 96 228 107 153 q 85 482 85 303 l 85 1044 z "},"V":{"ha":778,"x_min":11,"x_max":766,"o":"m 244 0 l 11 1044 l 269 1044 l 359 496 q 373 399 366 459 q 389 269 381 339 l 391 282 q 416 494 409 446 l 509 1044 l 766 1044 l 529 0 l 244 0 z "},"W":{"ha":1124,"x_min":22,"x_max":1125,"o":"m 231 0 l 22 1044 l 268 1044 l 323 536 q 338 397 333 453 q 347 296 344 340 q 358 422 352 361 q 374 538 365 482 l 452 1044 l 697 1044 l 772 538 q 789 397 777 508 q 802 296 797 333 q 814 444 809 390 q 823 533 819 497 l 879 1044 l 1125 1044 l 918 0 l 654 0 l 597 432 q 584 552 590 489 q 574 682 578 614 q 563 544 568 604 q 550 431 557 484 l 496 0 l 231 0 z "},"X":{"ha":737,"x_min":9,"x_max":737,"o":"m 9 0 l 233 514 l 25 1044 l 279 1044 l 376 734 l 472 1044 l 732 1044 l 518 514 l 737 0 l 475 0 l 376 301 l 271 0 l 9 0 z "},"Y":{"ha":713,"x_min":-9,"x_max":721,"o":"m 231 0 l 231 443 l -9 1044 l 253 1044 l 354 714 l 456 1044 l 721 1044 l 481 443 l 481 0 l 231 0 z "},"Z":{"ha":694,"x_min":45,"x_max":650,"o":"m 45 0 l 45 195 l 364 844 l 71 844 l 71 1044 l 635 1044 l 635 863 l 314 214 l 650 214 l 650 0 l 45 0 z "},"[":{"ha":467,"x_min":118,"x_max":428,"o":"m 428 -262 l 118 -262 l 118 1044 l 428 1044 l 428 903 l 315 903 l 315 -121 l 428 -121 l 428 -262 z "},"\\":{"ha":376,"x_min":-49,"x_max":397,"o":"m 282 -129 l -49 1069 l 66 1069 l 397 -129 l 282 -129 z "},"]":{"ha":467,"x_min":32,"x_max":342,"o":"m 32 -262 l 32 -121 l 144 -121 l 144 903 l 32 903 l 32 1044 l 342 1044 l 342 -262 l 32 -262 z "},"^":{"ha":1389,"x_min":279,"x_max":1108,"o":"m 808 991 l 1108 608 l 903 608 l 694 818 l 485 608 l 279 608 l 579 991 l 808 991 z "},"_":{"ha":694,"x_min":0,"x_max":694,"o":"m 694 -136 l 694 -328 l 0 -328 l 0 -136 l 694 -136 z "},"`":{"ha":694,"x_min":122,"x_max":457,"o":"m 457 868 l 359 868 l 122 1061 l 322 1061 l 457 868 z "},"a":{"ha":725,"x_min":43,"x_max":682,"o":"m 425 378 q 301 319 340 354 q 262 231 262 283 q 282 171 262 193 q 334 149 301 149 q 404 181 382 149 q 425 290 425 214 l 425 378 m 453 0 l 440 72 q 350 6 399 28 q 243 -16 300 -16 q 97 44 151 -16 q 43 205 43 104 q 89 352 43 294 q 239 452 134 410 q 307 477 264 461 q 429 578 429 522 q 412 630 429 612 q 361 648 394 648 q 301 624 321 648 q 282 550 282 600 l 282 545 l 62 545 q 136 742 62 677 q 361 807 210 807 q 482 794 429 807 q 571 758 535 782 q 636 683 617 727 q 654 522 654 639 l 654 498 l 654 220 q 661 79 654 127 q 682 0 667 31 l 453 0 z "},"b":{"ha":713,"x_min":75,"x_max":654,"o":"m 361 616 q 306 579 322 616 q 290 441 290 541 q 307 202 290 248 q 367 157 323 157 q 418 191 404 157 q 432 350 432 226 l 432 371 q 417 577 432 537 q 361 616 402 616 m 75 1044 l 294 1044 l 294 713 q 362 781 324 759 q 449 803 399 803 q 610 719 565 803 q 654 370 654 635 q 648 181 654 246 q 627 85 641 116 q 559 5 602 32 q 454 -22 515 -22 q 354 5 399 -22 q 278 86 309 33 l 278 0 l 75 0 l 75 1044 z "},"c":{"ha":686,"x_min":53,"x_max":627,"o":"m 410 309 l 625 309 q 626 293 625 302 q 627 278 627 283 q 557 53 627 127 q 345 -21 487 -21 q 118 70 184 -21 q 53 392 53 161 q 119 714 53 623 q 345 806 184 806 q 556 732 488 806 q 624 503 624 659 l 624 489 l 412 489 l 412 511 q 397 612 412 582 q 346 642 382 642 q 290 602 304 642 q 275 392 275 562 q 290 185 275 229 q 345 140 304 140 q 395 172 379 140 q 411 272 411 203 q 410 290 411 277 q 410 309 410 302 z "},"d":{"ha":713,"x_min":60,"x_max":637,"o":"m 353 616 q 296 574 311 616 q 281 385 281 531 q 295 194 281 232 q 347 157 309 157 q 407 202 391 157 q 424 441 424 248 q 408 579 424 541 q 353 616 392 616 m 637 1044 l 637 0 l 436 0 l 436 86 q 360 5 405 33 q 260 -22 315 -22 q 176 -6 214 -22 q 113 41 138 11 q 72 139 83 78 q 60 370 60 201 q 104 719 60 635 q 265 803 149 803 q 352 781 315 803 q 419 713 389 759 l 419 1044 l 637 1044 z "},"e":{"ha":692,"x_min":54,"x_max":633,"o":"m 424 275 l 629 275 l 629 256 q 557 48 629 118 q 343 -21 486 -21 q 213 -1 271 -21 q 122 56 155 20 q 70 165 85 97 q 54 385 54 234 q 70 616 54 551 q 125 725 86 682 q 219 785 162 765 q 353 806 277 806 q 486 784 430 806 q 578 718 543 762 q 621 631 608 682 q 633 457 633 580 l 633 363 l 277 363 q 276 354 276 359 q 273 285 273 304 q 291 170 273 202 q 351 138 309 138 q 408 162 389 138 q 427 237 427 187 q 425 269 427 248 q 424 275 424 273 m 282 498 l 429 498 q 429 503 429 500 q 432 545 432 532 q 413 630 432 602 q 355 657 395 657 q 298 630 315 657 q 281 542 281 604 q 281 515 281 525 q 282 498 281 506 z "},"f":{"ha":456,"x_min":22,"x_max":425,"o":"m 111 0 l 111 618 l 22 618 l 22 785 l 111 785 q 111 805 111 792 q 110 823 110 818 q 162 998 110 947 q 342 1048 215 1048 q 381 1047 361 1048 q 425 1044 402 1046 l 425 886 q 414 887 420 887 q 399 888 409 888 q 345 870 361 888 q 329 811 329 852 q 329 795 329 801 q 331 785 330 790 l 425 785 l 425 618 l 330 618 l 330 0 l 111 0 z "},"g":{"ha":707,"x_min":53,"x_max":629,"o":"m 273 496 l 273 439 q 288 243 273 285 q 340 201 302 201 q 394 238 379 201 q 410 395 410 275 l 410 427 q 395 587 410 554 q 342 621 380 621 q 290 591 307 621 q 273 496 273 562 m 629 785 l 629 82 q 618 -78 629 -26 q 579 -165 606 -130 q 478 -239 541 -214 q 325 -264 414 -264 q 120 -208 187 -264 q 53 -35 53 -151 l 269 -35 q 285 -99 269 -79 q 335 -119 301 -119 q 393 -93 377 -119 q 410 12 410 -66 l 410 104 q 327 47 366 65 q 248 29 288 29 q 146 60 191 29 q 78 149 102 91 q 59 236 65 179 q 53 385 53 294 q 57 541 53 472 q 69 652 62 609 q 131 760 82 718 q 244 803 180 803 q 341 777 296 803 q 429 697 387 751 l 429 785 l 629 785 z "},"h":{"ha":701,"x_min":69,"x_max":639,"o":"m 69 0 l 69 1044 l 288 1044 l 288 701 q 359 775 315 751 q 464 800 403 800 q 597 740 555 800 q 639 547 639 679 l 639 0 l 421 0 l 421 485 q 409 602 421 579 q 366 625 397 625 q 308 590 329 625 q 288 490 288 554 l 288 0 l 69 0 z "},"i":{"ha":367,"x_min":74,"x_max":292,"o":"m 74 863 l 74 1053 l 292 1053 l 292 863 l 74 863 m 74 0 l 74 785 l 292 785 l 292 0 l 74 0 z "},"j":{"ha":367,"x_min":4,"x_max":292,"o":"m 292 62 l 292 26 q 280 -139 292 -92 q 240 -215 269 -186 q 178 -251 216 -239 q 86 -262 140 -262 q 44 -261 64 -262 q 4 -257 24 -260 l 4 -94 q 12 -95 7 -94 q 18 -96 16 -96 q 62 -75 50 -96 q 74 37 74 -54 l 74 785 l 292 785 l 292 62 m 74 863 l 74 1053 l 292 1053 l 292 863 l 74 863 z "},"k":{"ha":685,"x_min":74,"x_max":685,"o":"m 74 0 l 74 1044 l 289 1044 l 289 528 l 461 785 l 681 785 l 452 485 l 685 0 l 465 0 l 325 319 l 289 269 l 289 0 l 74 0 z "},"l":{"ha":367,"x_min":74,"x_max":292,"o":"m 292 0 l 74 0 l 74 1044 l 292 1044 l 292 0 z "},"m":{"ha":1017,"x_min":74,"x_max":951,"o":"m 74 0 l 74 785 l 268 785 l 268 692 q 347 774 303 748 q 449 800 390 800 q 542 772 503 800 q 602 692 581 745 q 681 774 637 747 q 783 800 726 800 q 911 740 871 800 q 951 547 951 680 l 951 0 l 742 0 l 742 497 q 730 603 742 581 q 689 625 718 625 q 634 589 654 625 q 614 490 614 553 l 614 0 l 408 0 l 408 497 q 397 603 408 581 q 355 625 385 625 q 301 589 321 625 q 281 490 281 553 l 281 0 l 74 0 z "},"n":{"ha":718,"x_min":75,"x_max":646,"o":"m 75 0 l 75 785 l 281 785 l 281 692 q 363 774 317 747 q 471 800 409 800 q 604 740 562 800 q 646 547 646 679 l 646 0 l 428 0 l 428 485 q 416 602 428 579 q 372 625 404 625 q 315 590 336 625 q 294 490 294 554 l 294 0 l 75 0 z "},"o":{"ha":690,"x_min":53,"x_max":636,"o":"m 275 392 q 290 185 275 227 q 345 143 304 143 q 399 183 385 143 q 414 392 414 223 q 399 601 414 561 q 345 642 385 642 q 290 600 304 642 q 275 392 275 557 m 53 392 q 119 713 53 621 q 345 806 184 806 q 570 714 505 806 q 636 392 636 623 q 570 71 636 163 q 345 -21 505 -21 q 118 70 184 -21 q 53 392 53 161 z "},"p":{"ha":711,"x_min":79,"x_max":657,"o":"m 364 164 q 423 213 407 164 q 439 439 439 262 q 423 585 439 545 q 370 624 408 624 q 310 578 326 624 q 293 339 293 533 q 309 202 293 239 q 364 164 325 164 m 79 -264 l 79 785 l 281 785 l 281 696 q 356 776 311 749 q 457 803 401 803 q 541 787 503 803 q 604 741 579 770 q 645 643 633 704 q 657 412 657 581 q 613 61 657 144 q 453 -22 568 -22 q 366 0 404 -22 q 297 69 328 23 l 297 -264 l 79 -264 z "},"q":{"ha":713,"x_min":53,"x_max":632,"o":"m 346 164 q 401 202 385 164 q 416 339 416 239 q 400 578 416 533 q 340 624 384 624 q 290 589 304 624 q 275 449 275 555 l 275 408 q 290 205 275 246 q 346 164 305 164 m 632 -264 l 412 -264 l 412 69 q 345 0 382 22 q 258 -22 307 -22 q 98 62 142 -22 q 53 412 53 146 q 59 600 53 536 q 81 696 66 665 q 148 776 104 749 q 253 803 191 803 q 353 776 309 803 q 429 696 398 749 l 429 785 l 632 785 l 632 -264 z "},"r":{"ha":481,"x_min":69,"x_max":447,"o":"m 69 0 l 69 785 l 271 785 l 271 675 q 350 764 307 734 q 447 800 393 795 l 447 551 q 412 557 429 555 q 382 559 395 559 q 308 522 329 559 q 288 376 288 485 l 288 0 l 69 0 z "},"s":{"ha":610,"x_min":26,"x_max":581,"o":"m 26 249 l 222 248 q 246 159 226 187 q 307 131 267 131 q 361 150 340 131 q 382 200 382 170 q 367 244 382 227 q 302 285 353 261 q 269 301 292 290 q 103 404 150 356 q 52 480 70 437 q 35 571 35 524 q 107 742 35 678 q 304 806 180 806 q 503 744 433 806 q 572 568 572 683 l 572 554 l 380 555 q 362 639 379 614 q 309 664 346 664 q 256 646 275 664 q 236 599 236 628 q 334 504 236 547 q 355 494 348 498 q 535 377 490 434 q 581 228 581 320 q 507 44 581 109 q 298 -21 434 -21 q 98 45 170 -21 q 26 229 26 111 l 26 249 z "},"t":{"ha":458,"x_min":17,"x_max":427,"o":"m 427 3 q 357 -8 387 -5 q 306 -12 327 -12 q 195 9 241 -12 q 127 69 149 30 q 107 137 113 96 q 102 262 102 178 l 102 359 l 102 623 l 17 623 l 17 785 l 102 785 l 102 1002 l 322 1002 l 322 785 l 427 785 l 427 623 l 322 623 l 322 302 q 337 176 322 200 q 395 153 352 153 q 419 155 402 153 q 427 155 424 155 l 427 3 z "},"u":{"ha":718,"x_min":69,"x_max":640,"o":"m 640 785 l 640 0 l 435 0 l 435 93 q 353 11 398 37 q 245 -16 307 -16 q 112 45 155 -16 q 69 237 69 106 l 69 785 l 289 785 l 289 300 q 301 183 289 205 q 345 160 313 160 q 402 195 381 160 q 422 294 422 231 l 422 785 l 640 785 z "},"v":{"ha":608,"x_min":8,"x_max":599,"o":"m 180 0 l 8 785 l 228 785 l 304 252 l 380 785 l 599 785 l 425 0 l 180 0 z "},"w":{"ha":916,"x_min":12,"x_max":909,"o":"m 164 0 l 12 785 l 225 785 l 286 239 l 370 785 l 553 785 l 635 239 l 697 785 l 909 785 l 757 0 l 529 0 l 460 432 l 392 0 l 164 0 z "},"x":{"ha":593,"x_min":7,"x_max":590,"o":"m 7 0 l 184 392 l 17 785 l 232 785 l 298 571 l 366 785 l 582 785 l 414 395 l 590 0 l 368 0 l 298 221 l 229 0 l 7 0 z "},"y":{"ha":610,"x_min":11,"x_max":599,"o":"m 11 785 l 228 785 l 304 279 l 382 785 l 599 785 l 443 64 q 342 -204 398 -144 q 165 -264 287 -264 q 126 -262 148 -264 q 75 -256 104 -260 l 75 -92 q 79 -92 77 -92 q 113 -94 102 -94 q 168 -80 150 -94 q 186 -37 186 -66 q 172 43 186 -19 q 165 77 168 65 l 11 785 z "},"z":{"ha":551,"x_min":25,"x_max":526,"o":"m 25 0 l 25 155 l 292 604 l 43 604 l 43 785 l 526 785 l 526 619 l 262 176 l 526 176 l 526 0 l 25 0 z "},"{":{"ha":694,"x_min":98,"x_max":614,"o":"m 614 808 q 598 809 608 808 q 585 810 589 810 q 505 789 526 810 q 485 703 485 769 l 485 541 q 453 412 485 450 q 338 359 421 374 q 453 307 422 344 q 485 180 485 270 l 485 17 q 505 -68 485 -48 q 583 -89 525 -89 q 598 -88 588 -89 q 614 -87 608 -87 l 614 -281 l 559 -281 q 416 -274 465 -281 q 335 -250 367 -267 q 278 -193 294 -230 q 261 -66 261 -156 l 261 109 q 230 230 261 195 q 122 265 198 265 q 111 264 119 265 q 98 264 103 264 l 98 456 q 111 455 103 456 q 122 454 119 454 q 230 490 198 454 q 261 611 261 525 l 261 786 q 278 913 261 876 q 335 971 294 951 q 417 995 368 987 q 559 1002 466 1002 l 614 1002 l 614 808 z "},"|":{"ha":694,"x_min":253,"x_max":443,"o":"m 443 1061 l 443 -328 l 253 -328 l 253 1061 l 443 1061 z "},"}":{"ha":694,"x_min":82,"x_max":597,"o":"m 435 786 l 435 611 q 466 490 435 525 q 574 454 498 454 q 585 455 577 454 q 597 456 593 456 l 597 264 q 585 264 593 264 q 574 265 577 265 q 466 230 498 265 q 435 109 435 195 l 435 -66 q 418 -193 435 -155 q 359 -252 401 -231 q 281 -274 329 -267 q 146 -281 234 -281 l 82 -281 l 82 -89 q 98 -90 88 -89 q 111 -90 107 -90 q 191 -70 170 -90 q 211 17 211 -50 l 211 180 q 242 307 211 270 q 358 359 274 344 q 243 412 275 374 q 211 539 211 449 l 211 703 q 191 789 211 769 q 111 810 170 810 q 98 809 107 810 q 82 808 88 808 l 82 1002 l 136 1002 q 279 995 230 1002 q 359 971 328 987 q 418 912 401 950 q 435 786 435 874 z "},"~":{"ha":1157,"x_min":121,"x_max":1038,"o":"m 1038 368 q 907 300 968 321 q 786 278 846 278 q 710 286 749 278 q 606 317 671 294 q 474 355 522 345 q 380 364 426 364 q 261 338 323 364 q 121 257 199 313 l 121 460 q 268 534 201 511 q 397 557 334 557 q 481 549 437 557 q 586 521 525 541 q 629 506 601 516 q 789 469 732 469 q 907 494 847 469 q 1038 571 968 519 l 1038 368 z "},"":{"ha":745,"x_min":-1,"x_max":747,"o":"m 747 323 l 747 321 q 671 66 735 132 q 568 2 631 25 q 435 -21 505 -21 q 275 13 345 -21 q 165 111 206 47 q 120 386 127 175 q 119 399 119 395 l -1 399 l 32 493 l 118 493 l 118 575 l 4 575 l 37 668 l 121 668 q 124 735 121 702 q 131 796 127 768 q 177 936 142 884 q 278 1019 212 988 q 352 1043 313 1036 q 435 1051 392 1051 q 577 1025 512 1051 q 681 951 642 999 q 723 874 708 918 q 745 755 738 829 l 513 755 q 489 843 507 820 q 436 867 471 867 q 396 854 412 867 q 371 819 379 842 q 359 764 363 802 q 355 668 355 726 l 621 668 l 587 575 l 353 575 l 353 493 l 558 493 l 525 399 l 353 398 q 358 275 354 319 q 370 212 362 231 q 395 177 378 189 q 437 165 412 165 q 476 177 460 165 q 501 212 492 189 q 510 251 507 227 q 515 323 513 274 l 747 323 z "}," ":{"ha":745,"x_min":0,"x_max":0,"o":""},"¡":{"ha":460,"x_min":109,"x_max":351,"o":"m 170 700 l 296 700 l 351 278 l 351 0 l 109 0 l 109 278 l 170 700 m 113 1044 l 351 1044 l 351 807 l 113 807 l 113 1044 z "},"¢":{"ha":745,"x_min":85,"x_max":657,"o":"m 441 328 l 657 328 l 657 296 q 603 87 657 159 q 437 1 549 16 l 437 -186 l 310 -186 l 310 1 q 136 110 187 19 q 85 411 85 201 q 137 710 85 616 q 310 821 189 804 l 310 986 l 437 986 l 437 822 q 602 734 547 808 q 656 524 656 660 l 656 509 l 444 509 l 444 530 q 429 631 444 602 q 378 661 414 661 q 322 621 337 661 q 307 411 307 581 q 322 202 307 244 q 376 160 336 160 q 426 192 410 160 q 441 293 441 224 l 441 328 z "},"£":{"ha":745,"x_min":57,"x_max":701,"o":"m 182 427 l 57 427 l 57 547 l 139 547 q 94 673 109 619 q 79 766 79 726 q 164 972 79 896 q 392 1048 248 1048 q 612 971 534 1048 q 689 751 689 894 q 689 729 689 736 q 688 715 688 722 l 476 715 l 476 724 q 456 837 476 802 q 392 872 436 872 q 328 844 350 872 q 306 762 306 816 q 317 672 306 727 q 349 547 328 618 l 549 547 l 549 427 l 380 426 q 383 408 382 414 q 383 396 383 402 q 345 270 383 334 q 228 142 306 207 q 303 167 271 159 q 364 175 336 175 q 451 160 395 175 q 530 146 506 146 q 591 157 561 146 q 656 191 622 168 l 701 29 q 621 -13 661 1 q 536 -26 581 -26 q 402 -3 486 -26 q 283 20 319 20 q 210 9 250 20 q 123 -24 170 -2 l 57 126 q 158 243 125 184 q 191 364 191 301 q 188 395 191 380 q 182 427 186 411 z "},"¤":{"ha":745,"x_min":-1,"x_max":747,"o":"m 747 323 l 747 321 q 671 66 735 132 q 568 2 631 25 q 435 -21 505 -21 q 275 13 345 -21 q 165 111 206 47 q 120 386 127 175 q 119 399 119 395 l -1 399 l 32 493 l 118 493 l 118 575 l 4 575 l 37 668 l 121 668 q 124 735 121 702 q 131 796 127 768 q 177 936 142 884 q 278 1019 212 988 q 352 1043 313 1036 q 435 1051 392 1051 q 577 1025 512 1051 q 681 951 642 999 q 723 874 708 918 q 745 755 738 829 l 513 755 q 489 843 507 820 q 436 867 471 867 q 396 854 412 867 q 371 819 379 842 q 359 764 363 802 q 355 668 355 726 l 621 668 l 587 575 l 353 575 l 353 493 l 558 493 l 525 399 l 353 398 q 358 275 354 319 q 370 212 362 231 q 395 177 378 189 q 437 165 412 165 q 476 177 460 165 q 501 212 492 189 q 510 251 507 227 q 515 323 513 274 l 747 323 z "},"¥":{"ha":745,"x_min":12,"x_max":732,"o":"m 256 0 l 256 408 l 12 408 l 12 530 l 208 530 l 170 627 l 12 627 l 12 749 l 121 749 l 12 1029 l 269 1029 l 371 652 l 478 1029 l 732 1029 l 623 749 l 730 749 l 730 627 l 572 627 l 536 530 l 730 530 l 730 408 l 489 408 l 489 0 l 256 0 z "},"¦":{"ha":694,"x_min":253,"x_max":443,"o":"m 443 277 l 443 -237 l 253 -237 l 253 277 l 443 277 m 443 971 l 443 457 l 253 457 l 253 971 l 443 971 z "},"§":{"ha":694,"x_min":36,"x_max":659,"o":"m 425 289 q 455 326 445 307 q 465 359 465 344 q 372 473 465 399 l 366 479 l 262 561 q 231 531 241 547 q 221 497 221 515 q 239 452 221 478 q 288 401 256 427 l 425 289 m 58 26 l 254 26 q 276 -54 254 -24 q 335 -83 298 -83 q 387 -61 366 -83 q 408 -5 408 -38 q 299 128 408 42 l 296 130 l 179 221 q 68 337 100 283 q 36 463 36 392 q 62 578 36 524 q 142 684 88 633 q 100 756 114 720 q 86 831 86 793 q 163 1003 86 936 q 361 1071 240 1071 q 547 1007 478 1071 q 616 835 616 943 l 422 835 l 422 839 q 404 893 422 873 q 355 913 386 913 q 306 893 326 913 q 286 847 286 874 q 305 797 286 822 q 375 732 324 772 l 507 629 q 623 510 587 567 q 659 390 659 453 q 632 282 659 332 q 547 180 605 232 q 601 103 583 145 q 619 12 619 62 q 539 -169 619 -100 q 326 -239 458 -239 q 127 -171 197 -239 q 58 26 58 -102 z "},"¨":{"ha":694,"x_min":144,"x_max":550,"o":"m 385 875 l 385 1053 l 550 1053 l 550 875 l 385 875 m 144 875 l 144 1053 l 310 1053 l 310 875 l 144 875 z "},"©":{"ha":1157,"x_min":69,"x_max":1089,"o":"m 669 599 q 644 666 667 642 q 581 690 620 690 q 503 642 531 690 q 475 505 475 593 q 503 372 475 416 q 586 328 530 328 q 648 352 627 328 q 672 425 670 377 l 840 425 q 766 264 836 324 q 582 204 696 204 q 374 283 450 204 q 298 500 298 361 q 374 719 298 635 q 570 803 449 803 q 759 749 689 803 q 833 599 828 695 l 669 599 m 985 504 q 954 659 985 585 q 867 790 924 733 q 735 879 808 849 q 579 909 662 909 q 423 880 496 909 q 294 793 351 850 q 205 659 236 734 q 174 504 174 585 q 204 350 174 423 q 293 218 235 276 q 425 129 351 160 q 579 98 498 98 q 734 130 660 98 q 868 220 808 161 q 955 348 926 276 q 985 504 985 420 m 578 1013 q 776 975 683 1013 q 942 864 869 937 q 1051 699 1013 793 q 1089 503 1089 606 q 1052 307 1089 398 q 942 146 1014 216 q 772 33 867 73 q 578 -7 678 -7 q 385 32 477 -7 q 220 144 294 71 q 108 309 146 217 q 69 503 69 401 q 108 699 69 605 q 221 867 147 792 q 382 975 291 938 q 578 1013 474 1013 z "},"ª":{"ha":545,"x_min":32,"x_max":511,"o":"m 319 760 q 227 719 256 744 q 197 657 197 694 q 212 615 197 631 q 250 600 226 600 q 303 623 287 600 q 319 699 319 646 l 319 760 m 340 496 l 330 546 q 262 500 298 515 q 182 485 225 485 q 73 527 113 485 q 32 640 32 569 q 66 742 32 702 q 179 812 100 783 q 229 830 197 819 q 322 900 322 861 q 309 937 322 924 q 271 950 296 950 q 226 933 241 950 q 211 880 211 916 l 211 876 l 47 876 q 102 1016 47 970 q 271 1061 157 1061 q 362 1052 322 1061 q 428 1026 402 1043 q 476 975 463 1005 q 490 861 490 944 l 490 844 l 490 650 q 495 554 490 590 q 511 496 500 519 l 340 496 z "},"«":{"ha":749,"x_min":77,"x_max":667,"o":"m 329 479 l 193 395 l 329 302 l 329 129 l 77 294 l 77 494 l 329 656 l 329 479 m 667 479 l 529 395 l 667 302 l 667 129 l 412 294 l 412 494 l 667 656 l 667 479 z "},"¬":{"ha":1157,"x_min":172,"x_max":985,"o":"m 985 589 l 985 249 l 800 249 l 800 408 l 172 408 l 172 589 l 985 589 z "},"­":{"ha":541,"x_min":58,"x_max":482,"o":"m 58 288 l 58 497 l 482 497 l 482 288 l 58 288 z "},"®":{"ha":1157,"x_min":69,"x_max":1089,"o":"m 558 682 l 532 682 l 532 551 l 568 551 q 628 568 608 551 q 648 618 648 585 q 627 667 648 651 q 558 682 605 682 m 585 790 q 765 749 703 790 q 827 628 827 707 q 798 536 827 575 q 715 479 768 498 l 836 239 l 647 239 l 549 450 l 532 450 l 532 239 l 358 239 l 358 790 l 585 790 m 985 504 q 954 659 985 585 q 867 790 924 733 q 735 879 808 849 q 579 909 662 909 q 423 880 496 909 q 294 793 351 850 q 205 659 236 734 q 174 504 174 585 q 204 350 174 423 q 293 218 235 276 q 425 129 351 160 q 579 98 498 98 q 734 130 660 98 q 868 220 808 161 q 955 348 926 276 q 985 504 985 420 m 578 1013 q 776 975 683 1013 q 942 864 869 937 q 1051 699 1013 793 q 1089 503 1089 606 q 1052 307 1089 398 q 942 146 1014 216 q 772 33 867 73 q 578 -7 678 -7 q 385 32 477 -7 q 220 144 294 71 q 108 309 146 217 q 69 503 69 401 q 108 699 69 605 q 221 867 147 792 q 382 975 291 938 q 578 1013 474 1013 z "},"¯":{"ha":694,"x_min":144,"x_max":550,"o":"m 144 909 l 144 1019 l 550 1019 l 550 909 l 144 909 z "},"°":{"ha":457,"x_min":9,"x_max":447,"o":"m 332 781 q 301 853 332 823 q 228 884 271 884 q 156 853 186 884 q 126 781 126 823 q 156 707 126 737 q 229 676 186 676 q 301 707 271 676 q 332 781 332 739 m 229 999 q 384 935 320 999 q 447 779 447 871 q 383 625 447 690 q 228 561 319 561 q 73 624 137 561 q 9 779 9 688 q 74 935 9 870 q 229 999 139 999 z "},"±":{"ha":1157,"x_min":172,"x_max":985,"o":"m 985 157 l 985 -28 l 172 -28 l 172 157 l 985 157 m 673 856 l 673 646 l 985 646 l 985 461 l 673 461 l 673 252 l 484 252 l 484 461 l 172 461 l 172 646 l 484 646 l 484 856 l 673 856 z "},"²":{"ha":492,"x_min":32,"x_max":446,"o":"m 32 412 l 32 422 q 41 492 32 458 q 68 564 50 527 q 185 711 106 638 q 201 726 196 722 l 206 731 q 293 876 293 813 q 281 921 293 905 q 244 936 269 936 q 197 910 212 936 q 182 831 182 885 l 182 819 l 39 819 l 39 836 q 93 991 39 937 q 250 1044 148 1044 q 394 998 342 1044 q 446 869 446 951 q 423 778 446 821 q 353 689 401 734 q 317 656 341 677 q 215 536 236 584 l 443 536 l 443 412 l 32 412 z "},"³":{"ha":492,"x_min":39,"x_max":456,"o":"m 39 619 l 183 619 q 197 535 184 560 q 239 510 210 510 q 280 533 266 510 q 294 600 294 556 q 269 668 294 648 q 184 689 243 689 l 163 689 l 163 786 l 176 786 q 259 806 234 786 q 283 873 283 827 q 272 921 283 904 q 239 937 260 937 q 200 918 212 937 q 187 847 189 899 l 46 847 l 46 856 q 99 993 46 943 q 248 1043 153 1043 q 386 999 332 1043 q 439 885 439 955 q 415 803 439 838 q 342 745 391 768 q 428 687 399 724 q 456 593 456 650 q 400 451 456 502 q 244 400 344 400 q 93 453 147 400 q 39 602 39 506 l 39 619 z "},"´":{"ha":694,"x_min":237,"x_max":572,"o":"m 237 868 l 372 1061 l 572 1061 l 335 868 l 237 868 z "},"µ":{"ha":930,"x_min":-20,"x_max":900,"o":"m 408 737 l 351 321 q 349 298 350 306 q 349 285 349 290 q 370 217 349 239 q 435 195 391 195 q 519 230 488 195 q 559 339 549 265 l 616 737 l 900 737 l 793 0 l 543 0 l 555 89 q 499 20 531 43 q 428 -3 468 -3 q 356 19 387 -3 q 309 82 326 40 l 260 -286 l -20 -286 l 122 737 l 408 737 z "},"¶":{"ha":694,"x_min":7,"x_max":688,"o":"m 688 907 l 619 907 l 619 0 l 482 0 l 482 907 l 387 907 l 387 0 l 250 0 l 250 532 q 73 602 140 537 q 7 766 7 666 q 79 938 7 873 q 271 1003 151 1003 l 688 1003 l 688 907 z "},"·":{"ha":374,"x_min":61,"x_max":313,"o":"m 61 517 q 97 606 61 570 q 186 642 133 642 q 276 606 239 642 q 313 517 313 570 q 276 426 313 463 q 186 389 239 389 q 97 426 133 389 q 61 517 61 463 z "},"¸":{"ha":694,"x_min":183,"x_max":522,"o":"m 183 -296 l 183 -207 q 274 -223 232 -218 q 340 -229 315 -229 q 383 -218 370 -229 q 396 -182 396 -207 q 377 -151 396 -161 q 319 -140 359 -140 q 308 -141 316 -140 q 294 -142 299 -142 l 294 0 l 371 0 l 371 -56 q 483 -89 443 -56 q 522 -183 522 -122 q 478 -286 522 -249 q 355 -322 435 -322 q 264 -315 309 -322 q 183 -296 219 -309 z "},"¹":{"ha":492,"x_min":58,"x_max":350,"o":"m 196 412 l 196 844 l 58 844 l 58 940 l 66 940 q 185 966 141 940 q 244 1043 230 991 l 350 1043 l 350 412 l 196 412 z "},"º":{"ha":518,"x_min":40,"x_max":478,"o":"m 207 770 q 218 625 207 653 q 258 596 229 596 q 300 624 289 596 q 311 770 311 652 q 300 916 311 887 q 258 945 289 945 q 218 916 229 945 q 207 770 207 887 m 40 770 q 90 996 40 931 q 258 1060 139 1060 q 429 996 379 1060 q 478 770 478 931 q 428 546 478 610 q 258 482 378 482 q 89 546 138 482 q 40 770 40 609 z "},"»":{"ha":749,"x_min":82,"x_max":672,"o":"m 418 304 l 555 390 l 418 482 l 418 656 l 672 490 l 672 290 l 418 129 l 418 304 m 82 304 l 218 390 l 82 482 l 82 656 l 335 490 l 335 290 l 82 129 l 82 304 z "},"¼":{"ha":1169,"x_min":57,"x_max":1143,"o":"m 962 212 l 962 447 l 842 212 l 962 212 m 946 0 l 946 113 l 729 113 l 729 224 l 936 578 l 1086 578 l 1086 212 l 1143 212 l 1143 113 l 1086 113 l 1086 0 l 946 0 m 353 -21 l 237 -21 l 817 1051 l 932 1051 l 353 -21 m 187 453 l 187 857 l 57 857 l 57 946 l 64 946 q 177 970 135 946 q 233 1042 220 994 l 335 1042 l 335 453 l 187 453 z "},"½":{"ha":1169,"x_min":57,"x_max":1126,"o":"m 732 0 l 732 9 q 741 76 732 43 q 766 140 749 109 q 880 280 803 212 q 895 293 890 289 l 897 295 q 982 432 982 373 q 970 474 982 460 q 935 489 958 489 q 889 466 903 489 q 875 390 875 442 l 875 379 l 737 379 l 737 395 q 789 538 737 488 q 939 589 842 589 q 1077 546 1027 589 q 1126 427 1126 503 q 1105 340 1126 381 q 1039 257 1084 299 q 1008 230 1029 248 q 907 115 927 161 l 1125 115 l 1125 0 l 732 0 m 353 -21 l 237 -21 l 817 1051 l 932 1051 l 353 -21 m 187 453 l 187 857 l 57 857 l 57 946 l 64 946 q 177 970 135 946 q 233 1042 220 994 l 335 1042 l 335 453 l 187 453 z "},"¾":{"ha":1169,"x_min":36,"x_max":1143,"o":"m 962 212 l 962 447 l 842 212 l 962 212 m 946 0 l 946 113 l 729 113 l 729 224 l 936 578 l 1086 578 l 1086 212 l 1143 212 l 1143 113 l 1086 113 l 1086 0 l 946 0 m 353 -21 l 237 -21 l 817 1051 l 932 1051 l 353 -21 m 37 646 l 175 646 q 189 567 176 591 q 228 543 201 543 q 267 565 254 543 q 281 628 281 587 q 256 692 281 672 q 176 711 232 711 q 163 711 168 711 q 156 710 159 711 l 155 802 l 170 802 q 247 821 223 802 q 271 884 271 840 q 259 927 271 911 q 228 943 248 943 q 191 925 202 943 q 179 859 180 907 l 45 859 l 45 865 q 95 995 45 948 q 235 1042 146 1042 q 368 1000 317 1042 q 419 893 419 959 q 396 818 419 850 q 325 762 372 785 q 408 708 381 743 q 435 621 435 674 q 382 489 435 536 q 233 441 329 441 q 88 491 140 441 q 36 629 36 541 q 37 638 36 632 q 37 646 37 644 z "},"¿":{"ha":685,"x_min":36,"x_max":647,"o":"m 236 807 l 236 1044 l 475 1044 l 475 807 l 236 807 m 433 317 l 647 317 l 647 310 q 565 77 647 158 q 328 -4 482 -4 q 115 63 193 -4 q 36 245 36 131 q 63 369 36 307 q 165 525 90 430 l 169 530 q 252 705 252 636 l 252 717 l 460 716 q 463 692 462 704 q 464 668 464 680 q 441 561 464 612 q 351 424 419 509 l 347 418 q 273 265 273 328 q 294 196 273 220 q 351 171 315 171 q 412 203 390 171 q 435 293 435 236 q 434 305 435 297 q 433 317 433 313 z "},"À":{"ha":764,"x_min":9,"x_max":753,"o":"m 311 389 l 452 389 l 382 844 l 311 389 m 9 0 l 237 1044 l 528 1044 l 753 0 l 509 0 l 478 200 l 286 200 l 256 0 l 9 0 m 492 1132 l 394 1132 l 157 1325 l 357 1325 l 492 1132 z "},"Á":{"ha":764,"x_min":9,"x_max":753,"o":"m 311 389 l 452 389 l 382 844 l 311 389 m 9 0 l 237 1044 l 528 1044 l 753 0 l 509 0 l 478 200 l 286 200 l 256 0 l 9 0 m 272 1132 l 407 1325 l 607 1325 l 370 1132 l 272 1132 z "},"Â":{"ha":764,"x_min":9,"x_max":753,"o":"m 311 389 l 452 389 l 382 844 l 311 389 m 9 0 l 237 1044 l 528 1044 l 753 0 l 509 0 l 478 200 l 286 200 l 256 0 l 9 0 m 167 1132 l 301 1325 l 463 1325 l 597 1132 l 500 1132 l 382 1234 l 264 1132 l 167 1132 z "},"Ã":{"ha":764,"x_min":9,"x_max":753,"o":"m 311 389 l 452 389 l 382 844 l 311 389 m 9 0 l 237 1044 l 528 1044 l 753 0 l 509 0 l 478 200 l 286 200 l 256 0 l 9 0 m 232 1141 l 163 1140 q 214 1258 179 1219 q 302 1297 248 1297 q 327 1296 315 1297 q 350 1292 338 1295 l 437 1270 q 454 1266 446 1267 q 472 1265 463 1265 q 510 1279 495 1265 q 532 1316 526 1292 l 600 1316 q 549 1198 587 1240 q 456 1156 511 1156 q 435 1157 445 1156 q 415 1161 425 1158 l 322 1185 q 308 1188 315 1187 q 294 1189 301 1189 q 254 1177 269 1189 q 232 1141 238 1164 z "},"Ä":{"ha":764,"x_min":9,"x_max":753,"o":"m 311 389 l 452 389 l 382 844 l 311 389 m 9 0 l 237 1044 l 528 1044 l 753 0 l 509 0 l 478 200 l 286 200 l 256 0 l 9 0 m 419 1139 l 419 1316 l 585 1316 l 585 1139 l 419 1139 m 179 1139 l 179 1316 l 345 1316 l 345 1139 l 179 1139 z "},"Å":{"ha":764,"x_min":9,"x_max":753,"o":"m 326 1202 q 343 1164 326 1180 q 382 1147 360 1147 q 419 1163 404 1147 q 435 1202 435 1179 q 420 1239 435 1224 q 382 1254 405 1254 q 342 1239 359 1254 q 326 1202 326 1223 m 245 1202 q 286 1297 245 1257 q 382 1337 326 1337 q 477 1298 438 1337 q 517 1202 517 1258 q 477 1105 517 1145 q 382 1065 438 1065 q 286 1105 326 1065 q 245 1202 245 1145 m 311 389 l 452 389 l 382 844 l 311 389 m 9 0 l 235 1029 l 528 1029 l 753 0 l 509 0 l 478 200 l 286 200 l 256 0 l 9 0 z "},"Æ":{"ha":1105,"x_min":-12,"x_max":1044,"o":"m 492 425 l 492 836 l 473 836 l 357 425 l 492 425 m -12 0 l 364 1044 l 1039 1044 l 1039 836 l 730 836 l 730 646 l 1023 646 l 1023 436 l 730 436 l 730 208 l 1044 208 l 1044 0 l 492 0 l 492 235 l 306 235 l 240 0 l -12 0 z "},"Ç":{"ha":828,"x_min":64,"x_max":754,"o":"m 513 404 l 753 404 q 754 384 753 395 q 754 351 754 373 q 670 67 754 160 q 414 -25 587 -25 q 239 9 312 -25 q 122 111 167 43 q 77 247 91 160 q 64 522 64 334 q 77 798 64 711 q 122 933 91 884 q 238 1035 166 1001 q 410 1069 310 1069 q 667 974 581 1069 q 753 689 753 879 l 753 679 l 515 680 q 491 829 514 786 q 414 872 468 872 q 333 820 355 872 q 311 542 311 767 l 311 522 q 333 225 311 280 q 414 171 355 171 q 491 211 469 171 q 513 358 513 250 l 513 404 m 240 -296 l 240 -207 q 331 -223 289 -218 q 397 -229 372 -229 q 440 -218 427 -229 q 453 -182 453 -207 q 434 -151 453 -161 q 376 -140 416 -140 q 365 -141 373 -140 q 351 -142 356 -142 l 351 0 l 428 0 l 428 -56 q 539 -89 500 -56 q 579 -183 579 -122 q 535 -286 579 -249 q 412 -322 492 -322 q 321 -315 366 -322 q 240 -296 276 -309 z "},"È":{"ha":720,"x_min":85,"x_max":653,"o":"m 85 0 l 85 1044 l 653 1044 l 653 842 l 328 842 l 328 650 l 628 650 l 628 440 l 328 440 l 328 212 l 653 212 l 653 0 l 85 0 m 479 1132 l 382 1132 l 144 1325 l 345 1325 l 479 1132 z "},"É":{"ha":720,"x_min":85,"x_max":653,"o":"m 85 0 l 85 1044 l 653 1044 l 653 842 l 328 842 l 328 650 l 628 650 l 628 440 l 328 440 l 328 212 l 653 212 l 653 0 l 85 0 m 260 1132 l 395 1325 l 595 1325 l 357 1132 l 260 1132 z "},"Ê":{"ha":720,"x_min":85,"x_max":653,"o":"m 85 0 l 85 1044 l 653 1044 l 653 842 l 328 842 l 328 650 l 628 650 l 628 440 l 328 440 l 328 212 l 653 212 l 653 0 l 85 0 m 155 1132 l 289 1325 l 450 1325 l 585 1132 l 488 1132 l 370 1234 l 252 1132 l 155 1132 z "},"Ë":{"ha":720,"x_min":85,"x_max":653,"o":"m 85 0 l 85 1044 l 653 1044 l 653 842 l 328 842 l 328 650 l 628 650 l 628 440 l 328 440 l 328 212 l 653 212 l 653 0 l 85 0 m 407 1139 l 407 1316 l 572 1316 l 572 1139 l 407 1139 m 167 1139 l 167 1316 l 332 1316 l 332 1139 l 167 1139 z "},"Ì":{"ha":414,"x_min":-18,"x_max":329,"o":"m 85 0 l 85 1044 l 329 1044 l 329 0 l 85 0 m 317 1132 l 219 1132 l -18 1325 l 182 1325 l 317 1132 z "},"Í":{"ha":414,"x_min":85,"x_max":432,"o":"m 85 0 l 85 1044 l 329 1044 l 329 0 l 85 0 m 97 1132 l 232 1325 l 432 1325 l 195 1132 l 97 1132 z "},"Î":{"ha":414,"x_min":-8,"x_max":422,"o":"m 85 0 l 85 1044 l 329 1044 l 329 0 l 85 0 m -8 1132 l 126 1325 l 288 1325 l 422 1132 l 325 1132 l 207 1234 l 89 1132 l -8 1132 z "},"Ï":{"ha":414,"x_min":4,"x_max":410,"o":"m 85 0 l 85 1044 l 329 1044 l 329 0 l 85 0 m 244 1139 l 244 1316 l 410 1316 l 410 1139 l 244 1139 m 4 1139 l 4 1316 l 170 1316 l 170 1139 l 4 1139 z "},"Ð":{"ha":832,"x_min":0,"x_max":766,"o":"m 375 1044 q 594 1019 523 1044 q 707 932 665 994 q 753 807 740 884 q 766 522 766 731 q 753 237 766 313 q 707 113 740 161 q 594 25 665 51 q 375 0 523 0 l 93 0 l 93 457 l 0 457 l 0 633 l 93 633 l 93 1044 l 375 1044 m 332 457 l 332 191 q 362 188 353 189 q 379 187 372 187 q 456 199 425 187 q 504 235 486 211 q 524 303 518 253 q 529 521 529 353 l 529 597 q 524 750 529 709 q 505 807 519 790 q 457 841 489 830 q 378 852 425 852 q 336 850 365 852 q 332 850 334 850 l 332 633 l 443 633 l 443 457 l 332 457 z "},"Ñ":{"ha":822,"x_min":85,"x_max":736,"o":"m 85 0 l 85 1044 l 339 1044 l 542 400 q 524 681 530 563 q 518 880 518 799 l 518 1044 l 736 1044 l 736 0 l 481 0 l 277 664 q 297 413 290 534 q 304 176 304 291 l 304 0 l 85 0 m 274 1141 l 205 1140 q 256 1258 221 1219 q 345 1297 290 1297 q 369 1296 357 1297 q 392 1292 380 1295 l 479 1270 q 496 1266 488 1267 q 514 1265 505 1265 q 552 1279 537 1265 q 574 1316 568 1292 l 642 1316 q 591 1198 629 1240 q 498 1156 553 1156 q 477 1157 487 1156 q 457 1161 467 1158 l 364 1185 q 350 1188 357 1187 q 336 1189 343 1189 q 296 1177 311 1189 q 274 1141 280 1164 z "},"Ò":{"ha":828,"x_min":64,"x_max":764,"o":"m 514 428 l 514 616 q 492 831 514 790 q 412 872 470 872 q 334 830 356 872 q 313 616 313 788 l 313 428 q 334 215 313 258 q 414 172 356 172 q 492 214 471 172 q 514 428 514 256 m 64 522 q 77 798 64 711 q 122 933 91 884 q 239 1036 167 1002 q 414 1069 312 1069 q 588 1036 516 1069 q 704 933 659 1002 q 750 797 736 884 q 764 522 764 710 q 750 248 764 335 q 704 111 736 161 q 588 9 660 43 q 414 -25 515 -25 q 239 9 312 -25 q 122 111 167 43 q 77 247 91 160 q 64 522 64 334 m 524 1132 l 426 1132 l 189 1325 l 389 1325 l 524 1132 z "},"Ó":{"ha":828,"x_min":64,"x_max":764,"o":"m 514 428 l 514 616 q 492 831 514 790 q 412 872 470 872 q 334 830 356 872 q 313 616 313 788 l 313 428 q 334 215 313 258 q 414 172 356 172 q 492 214 471 172 q 514 428 514 256 m 64 522 q 77 798 64 711 q 122 933 91 884 q 239 1036 167 1002 q 414 1069 312 1069 q 588 1036 516 1069 q 704 933 659 1002 q 750 797 736 884 q 764 522 764 710 q 750 248 764 335 q 704 111 736 161 q 588 9 660 43 q 414 -25 515 -25 q 239 9 312 -25 q 122 111 167 43 q 77 247 91 160 q 64 522 64 334 m 304 1132 l 439 1325 l 639 1325 l 401 1132 l 304 1132 z "},"Ô":{"ha":828,"x_min":64,"x_max":764,"o":"m 514 428 l 514 616 q 492 831 514 790 q 412 872 470 872 q 334 830 356 872 q 313 616 313 788 l 313 428 q 334 215 313 258 q 414 172 356 172 q 492 214 471 172 q 514 428 514 256 m 64 522 q 77 798 64 711 q 122 933 91 884 q 239 1036 167 1002 q 414 1069 312 1069 q 588 1036 516 1069 q 704 933 659 1002 q 750 797 736 884 q 764 522 764 710 q 750 248 764 335 q 704 111 736 161 q 588 9 660 43 q 414 -25 515 -25 q 239 9 312 -25 q 122 111 167 43 q 77 247 91 160 q 64 522 64 334 m 199 1132 l 333 1325 l 494 1325 l 629 1132 l 532 1132 l 414 1234 l 296 1132 l 199 1132 z "},"Õ":{"ha":828,"x_min":64,"x_max":764,"o":"m 514 428 l 514 616 q 492 831 514 790 q 412 872 470 872 q 334 830 356 872 q 313 616 313 788 l 313 428 q 334 215 313 258 q 414 172 356 172 q 492 214 471 172 q 514 428 514 256 m 64 522 q 77 798 64 711 q 122 933 91 884 q 239 1036 167 1002 q 414 1069 312 1069 q 588 1036 516 1069 q 704 933 659 1002 q 750 797 736 884 q 764 522 764 710 q 750 248 764 335 q 704 111 736 161 q 588 9 660 43 q 414 -25 515 -25 q 239 9 312 -25 q 122 111 167 43 q 77 247 91 160 q 64 522 64 334 m 264 1141 l 195 1140 q 245 1258 211 1219 q 334 1297 280 1297 q 359 1296 347 1297 q 382 1292 370 1295 l 469 1270 q 486 1266 477 1267 q 504 1265 494 1265 q 542 1279 527 1265 q 564 1316 557 1292 l 632 1316 q 581 1198 618 1240 q 488 1156 543 1156 q 467 1157 477 1156 q 447 1161 456 1158 l 354 1185 q 340 1188 347 1187 q 326 1189 333 1189 q 286 1177 301 1189 q 264 1141 270 1164 z "},"Ö":{"ha":828,"x_min":64,"x_max":764,"o":"m 514 428 l 514 616 q 492 831 514 790 q 412 872 470 872 q 334 830 356 872 q 313 616 313 788 l 313 428 q 334 215 313 258 q 414 172 356 172 q 492 214 471 172 q 514 428 514 256 m 64 522 q 77 798 64 711 q 122 933 91 884 q 239 1036 167 1002 q 414 1069 312 1069 q 588 1036 516 1069 q 704 933 659 1002 q 750 797 736 884 q 764 522 764 710 q 750 248 764 335 q 704 111 736 161 q 588 9 660 43 q 414 -25 515 -25 q 239 9 312 -25 q 122 111 167 43 q 77 247 91 160 q 64 522 64 334 m 451 1139 l 451 1316 l 616 1316 l 616 1139 l 451 1139 m 211 1139 l 211 1316 l 376 1316 l 376 1139 l 211 1139 z "},"×":{"ha":1157,"x_min":172,"x_max":1014,"o":"m 593 546 l 882 835 l 1014 703 l 725 414 l 1014 125 l 882 -7 l 593 282 l 304 -7 l 172 125 l 461 414 l 172 703 l 304 835 l 593 546 z "},"Ø":{"ha":828,"x_min":12,"x_max":814,"o":"m 309 414 l 513 765 q 487 853 513 822 q 414 884 461 884 q 331 834 354 884 q 309 599 309 784 l 309 522 l 309 414 m 518 596 l 318 248 q 350 184 324 208 q 414 161 376 161 q 496 213 473 161 q 518 479 518 264 l 518 497 l 518 596 m 214 22 l 136 -114 l 12 -49 l 114 127 q 76 267 87 190 q 64 484 64 343 q 77 797 64 709 q 122 933 90 884 q 241 1037 166 1002 q 415 1072 316 1072 q 523 1058 471 1072 q 624 1014 574 1043 l 692 1129 l 814 1063 l 720 904 q 753 773 743 844 q 764 572 764 702 q 750 250 764 340 q 704 111 737 161 q 587 8 661 43 q 414 -26 513 -26 q 312 -14 361 -26 q 214 22 262 -2 z "},"Ù":{"ha":828,"x_min":85,"x_max":743,"o":"m 85 1044 l 332 1044 l 332 390 q 350 206 332 241 q 416 171 369 171 q 483 208 465 171 q 501 390 501 244 l 501 1044 l 743 1044 l 743 378 q 733 209 743 264 q 701 111 724 153 q 593 8 664 41 q 410 -25 523 -25 q 239 6 305 -25 q 135 104 174 37 q 96 228 107 153 q 85 482 85 303 l 85 1044 m 526 1132 l 429 1132 l 191 1325 l 391 1325 l 526 1132 z "},"Ú":{"ha":828,"x_min":85,"x_max":743,"o":"m 85 1044 l 332 1044 l 332 390 q 350 206 332 241 q 416 171 369 171 q 483 208 465 171 q 501 390 501 244 l 501 1044 l 743 1044 l 743 378 q 733 209 743 264 q 701 111 724 153 q 593 8 664 41 q 410 -25 523 -25 q 239 6 305 -25 q 135 104 174 37 q 96 228 107 153 q 85 482 85 303 l 85 1044 m 307 1132 l 441 1325 l 642 1325 l 404 1132 l 307 1132 z "},"Û":{"ha":828,"x_min":85,"x_max":743,"o":"m 85 1044 l 332 1044 l 332 390 q 350 206 332 241 q 416 171 369 171 q 483 208 465 171 q 501 390 501 244 l 501 1044 l 743 1044 l 743 378 q 733 209 743 264 q 701 111 724 153 q 593 8 664 41 q 410 -25 523 -25 q 239 6 305 -25 q 135 104 174 37 q 96 228 107 153 q 85 482 85 303 l 85 1044 m 201 1132 l 336 1325 l 497 1325 l 631 1132 l 534 1132 l 416 1234 l 298 1132 l 201 1132 z "},"Ü":{"ha":828,"x_min":85,"x_max":743,"o":"m 85 1044 l 332 1044 l 332 390 q 350 206 332 241 q 416 171 369 171 q 483 208 465 171 q 501 390 501 244 l 501 1044 l 743 1044 l 743 378 q 733 209 743 264 q 701 111 724 153 q 593 8 664 41 q 410 -25 523 -25 q 239 6 305 -25 q 135 104 174 37 q 96 228 107 153 q 85 482 85 303 l 85 1044 m 454 1139 l 454 1316 l 619 1316 l 619 1139 l 454 1139 m 214 1139 l 214 1316 l 379 1316 l 379 1139 l 214 1139 z "},"Ý":{"ha":713,"x_min":-9,"x_max":721,"o":"m 231 0 l 231 443 l -9 1044 l 253 1044 l 354 714 l 456 1044 l 721 1044 l 481 443 l 481 0 l 231 0 m 247 1132 l 382 1325 l 582 1325 l 345 1132 l 247 1132 z "},"Þ":{"ha":791,"x_min":85,"x_max":746,"o":"m 331 428 q 343 427 336 427 q 363 427 350 427 q 468 461 435 427 q 501 571 501 495 q 467 661 501 633 q 355 689 433 689 l 330 689 l 331 428 m 85 0 l 85 1044 l 330 1044 l 330 878 l 379 878 q 660 802 574 878 q 746 557 746 727 q 662 316 746 398 q 416 233 578 233 l 330 233 l 330 0 l 85 0 z "},"ß":{"ha":700,"x_min":74,"x_max":643,"o":"m 74 0 l 74 684 q 82 832 74 783 q 109 918 90 882 q 200 1015 141 983 q 347 1047 260 1047 q 550 978 477 1047 q 624 786 624 909 q 601 679 624 726 q 532 596 578 631 q 617 499 591 563 q 643 315 643 435 q 593 65 643 145 q 439 -16 544 -16 q 395 -12 418 -15 q 347 -3 372 -9 l 347 155 l 354 155 q 413 186 397 155 q 429 340 429 217 l 429 380 q 413 481 429 453 q 358 510 397 510 l 347 510 l 347 667 q 396 688 383 667 q 410 800 410 710 q 395 867 410 844 q 353 890 380 890 q 303 863 317 890 q 290 729 290 835 l 290 700 l 290 0 l 74 0 z "},"à":{"ha":725,"x_min":43,"x_max":682,"o":"m 425 378 q 301 319 340 354 q 262 231 262 283 q 282 171 262 193 q 334 149 301 149 q 404 181 382 149 q 425 290 425 214 l 425 378 m 453 0 l 440 72 q 350 6 399 28 q 243 -16 300 -16 q 97 44 151 -16 q 43 205 43 104 q 89 352 43 294 q 239 452 134 410 q 307 477 264 461 q 429 578 429 522 q 412 630 429 612 q 361 648 394 648 q 301 624 321 648 q 282 550 282 600 l 282 545 l 62 545 q 136 742 62 677 q 361 807 210 807 q 482 794 429 807 q 571 758 535 782 q 636 683 617 727 q 654 522 654 639 l 654 498 l 654 220 q 661 79 654 127 q 682 0 667 31 l 453 0 m 490 868 l 393 868 l 155 1061 l 355 1061 l 490 868 z "},"á":{"ha":725,"x_min":43,"x_max":682,"o":"m 425 378 q 301 319 340 354 q 262 231 262 283 q 282 171 262 193 q 334 149 301 149 q 404 181 382 149 q 425 290 425 214 l 425 378 m 453 0 l 440 72 q 350 6 399 28 q 243 -16 300 -16 q 97 44 151 -16 q 43 205 43 104 q 89 352 43 294 q 239 452 134 410 q 307 477 264 461 q 429 578 429 522 q 412 630 429 612 q 361 648 394 648 q 301 624 321 648 q 282 550 282 600 l 282 545 l 62 545 q 136 742 62 677 q 361 807 210 807 q 482 794 429 807 q 571 758 535 782 q 636 683 617 727 q 654 522 654 639 l 654 498 l 654 220 q 661 79 654 127 q 682 0 667 31 l 453 0 m 271 868 l 406 1061 l 606 1061 l 368 868 l 271 868 z "},"â":{"ha":725,"x_min":43,"x_max":682,"o":"m 425 378 q 301 319 340 354 q 262 231 262 283 q 282 171 262 193 q 334 149 301 149 q 404 181 382 149 q 425 290 425 214 l 425 378 m 453 0 l 440 72 q 350 6 399 28 q 243 -16 300 -16 q 97 44 151 -16 q 43 205 43 104 q 89 352 43 294 q 239 452 134 410 q 307 477 264 461 q 429 578 429 522 q 412 630 429 612 q 361 648 394 648 q 301 624 321 648 q 282 550 282 600 l 282 545 l 62 545 q 136 742 62 677 q 361 807 210 807 q 482 794 429 807 q 571 758 535 782 q 636 683 617 727 q 654 522 654 639 l 654 498 l 654 220 q 661 79 654 127 q 682 0 667 31 l 453 0 m 165 868 l 300 1061 l 461 1061 l 595 868 l 498 868 l 380 970 l 262 868 l 165 868 z "},"ã":{"ha":725,"x_min":43,"x_max":682,"o":"m 425 378 q 301 319 340 354 q 262 231 262 283 q 282 171 262 193 q 334 149 301 149 q 404 181 382 149 q 425 290 425 214 l 425 378 m 453 0 l 440 72 q 350 6 399 28 q 243 -16 300 -16 q 97 44 151 -16 q 43 205 43 104 q 89 352 43 294 q 239 452 134 410 q 307 477 264 461 q 429 578 429 522 q 412 630 429 612 q 361 648 394 648 q 301 624 321 648 q 282 550 282 600 l 282 545 l 62 545 q 136 742 62 677 q 361 807 210 807 q 482 794 429 807 q 571 758 535 782 q 636 683 617 727 q 654 522 654 639 l 654 498 l 654 220 q 661 79 654 127 q 682 0 667 31 l 453 0 m 231 877 l 162 876 q 212 995 178 956 q 301 1034 247 1034 q 326 1032 314 1034 q 349 1028 337 1031 l 435 1006 q 453 1003 444 1004 q 471 1002 461 1002 q 509 1015 494 1002 q 530 1053 524 1028 l 599 1053 q 548 934 585 976 q 454 892 510 892 q 433 893 444 892 q 414 897 423 895 l 321 921 q 307 924 314 923 q 293 925 300 925 q 252 913 268 925 q 231 877 237 901 z "},"ä":{"ha":725,"x_min":43,"x_max":682,"o":"m 425 378 q 301 319 340 354 q 262 231 262 283 q 282 171 262 193 q 334 149 301 149 q 404 181 382 149 q 425 290 425 214 l 425 378 m 453 0 l 440 72 q 350 6 399 28 q 243 -16 300 -16 q 97 44 151 -16 q 43 205 43 104 q 89 352 43 294 q 239 452 134 410 q 307 477 264 461 q 429 578 429 522 q 412 630 429 612 q 361 648 394 648 q 301 624 321 648 q 282 550 282 600 l 282 545 l 62 545 q 136 742 62 677 q 361 807 210 807 q 482 794 429 807 q 571 758 535 782 q 636 683 617 727 q 654 522 654 639 l 654 498 l 654 220 q 661 79 654 127 q 682 0 667 31 l 453 0 m 418 875 l 418 1053 l 583 1053 l 583 875 l 418 875 m 178 875 l 178 1053 l 343 1053 l 343 875 l 178 875 z "},"å":{"ha":725,"x_min":43,"x_max":682,"o":"m 425 378 q 301 319 340 354 q 262 231 262 283 q 282 171 262 193 q 334 149 301 149 q 404 181 382 149 q 425 290 425 214 l 425 378 m 453 0 l 440 72 q 350 6 399 28 q 243 -16 300 -16 q 97 44 151 -16 q 43 205 43 104 q 89 352 43 294 q 239 452 134 410 q 307 477 264 461 q 429 578 429 522 q 412 630 429 612 q 361 648 394 648 q 301 624 321 648 q 282 550 282 600 l 282 545 l 62 545 q 136 742 62 677 q 361 807 210 807 q 482 794 429 807 q 571 758 535 782 q 636 683 617 727 q 654 522 654 639 l 654 498 l 654 220 q 661 79 654 127 q 682 0 667 31 l 453 0 m 319 981 q 335 943 319 959 q 374 928 351 928 q 412 943 396 928 q 428 981 428 958 q 412 1019 428 1004 q 374 1035 397 1035 q 335 1019 351 1035 q 319 981 319 1003 m 239 981 q 278 1078 239 1038 q 374 1118 318 1118 q 470 1078 429 1118 q 510 981 510 1037 q 470 885 510 924 q 374 846 430 846 q 278 885 317 846 q 239 981 239 924 z "},"æ":{"ha":1048,"x_min":43,"x_max":993,"o":"m 993 364 l 640 364 q 640 352 640 360 q 637 261 637 290 q 655 167 637 195 q 714 139 673 139 q 769 164 751 139 q 787 241 787 190 q 787 263 787 256 q 786 276 787 270 l 989 277 l 989 257 q 918 48 989 121 q 714 -24 847 -24 q 601 -5 653 -24 q 500 54 549 14 q 384 -4 441 15 q 269 -24 327 -24 q 104 37 165 -24 q 43 204 43 98 q 89 350 43 293 q 239 450 134 408 q 307 476 264 460 q 429 575 429 520 q 412 628 429 610 q 361 646 394 646 q 302 621 321 646 q 282 547 282 597 l 282 542 l 62 542 l 62 546 q 136 739 62 674 q 355 804 210 804 q 459 789 413 804 q 545 743 505 774 q 639 789 592 774 q 736 804 686 804 q 852 782 800 804 q 939 718 905 760 q 981 631 968 682 q 993 458 993 581 l 993 364 m 639 499 l 786 498 q 787 503 786 500 q 789 546 789 532 q 770 630 789 602 q 713 657 751 657 q 654 631 673 657 q 636 546 636 604 q 637 529 636 538 q 639 499 637 519 m 425 375 q 301 316 340 351 q 262 229 262 281 q 281 169 262 191 q 334 147 300 147 q 404 179 382 147 q 425 288 425 210 l 425 375 z "},"ç":{"ha":686,"x_min":53,"x_max":627,"o":"m 410 309 l 625 309 q 626 293 625 302 q 627 278 627 283 q 557 53 627 127 q 345 -21 487 -21 q 118 70 184 -21 q 53 392 53 161 q 119 714 53 623 q 345 806 184 806 q 556 732 488 806 q 624 503 624 659 l 624 489 l 412 489 l 412 511 q 397 612 412 582 q 346 642 382 642 q 290 602 304 642 q 275 392 275 562 q 290 185 275 229 q 345 140 304 140 q 395 172 379 140 q 411 272 411 203 q 410 290 411 277 q 410 309 410 302 m 172 -296 l 172 -207 q 263 -223 221 -218 q 330 -229 304 -229 q 372 -218 359 -229 q 385 -182 385 -207 q 367 -151 385 -161 q 309 -140 348 -140 q 297 -141 305 -140 q 283 -142 288 -142 l 283 0 l 360 0 l 360 -56 q 472 -89 432 -56 q 511 -183 511 -122 q 468 -286 511 -249 q 345 -322 424 -322 q 253 -315 298 -322 q 172 -296 208 -309 z "},"è":{"ha":692,"x_min":54,"x_max":633,"o":"m 424 275 l 629 275 l 629 256 q 557 48 629 118 q 343 -21 486 -21 q 213 -1 271 -21 q 122 56 155 20 q 70 165 85 97 q 54 385 54 234 q 70 616 54 551 q 125 725 86 682 q 219 785 162 765 q 353 806 277 806 q 486 784 430 806 q 578 718 543 762 q 621 631 608 682 q 633 457 633 580 l 633 363 l 277 363 q 276 354 276 359 q 273 285 273 304 q 291 170 273 202 q 351 138 309 138 q 408 162 389 138 q 427 237 427 187 q 425 269 427 248 q 424 275 424 273 m 282 498 l 429 498 q 429 503 429 500 q 432 545 432 532 q 413 630 432 602 q 355 657 395 657 q 298 630 315 657 q 281 542 281 604 q 281 515 281 525 q 282 498 281 506 m 464 868 l 366 868 l 129 1061 l 329 1061 l 464 868 z "},"é":{"ha":692,"x_min":54,"x_max":633,"o":"m 424 275 l 629 275 l 629 256 q 557 48 629 118 q 343 -21 486 -21 q 213 -1 271 -21 q 122 56 155 20 q 70 165 85 97 q 54 385 54 234 q 70 616 54 551 q 125 725 86 682 q 219 785 162 765 q 353 806 277 806 q 486 784 430 806 q 578 718 543 762 q 621 631 608 682 q 633 457 633 580 l 633 363 l 277 363 q 276 354 276 359 q 273 285 273 304 q 291 170 273 202 q 351 138 309 138 q 408 162 389 138 q 427 237 427 187 q 425 269 427 248 q 424 275 424 273 m 282 498 l 429 498 q 429 503 429 500 q 432 545 432 532 q 413 630 432 602 q 355 657 395 657 q 298 630 315 657 q 281 542 281 604 q 281 515 281 525 q 282 498 281 506 m 244 868 l 379 1061 l 579 1061 l 342 868 l 244 868 z "},"ê":{"ha":692,"x_min":54,"x_max":633,"o":"m 424 275 l 629 275 l 629 256 q 557 48 629 118 q 343 -21 486 -21 q 213 -1 271 -21 q 122 56 155 20 q 70 165 85 97 q 54 385 54 234 q 70 616 54 551 q 125 725 86 682 q 219 785 162 765 q 353 806 277 806 q 486 784 430 806 q 578 718 543 762 q 621 631 608 682 q 633 457 633 580 l 633 363 l 277 363 q 276 354 276 359 q 273 285 273 304 q 291 170 273 202 q 351 138 309 138 q 408 162 389 138 q 427 237 427 187 q 425 269 427 248 q 424 275 424 273 m 282 498 l 429 498 q 429 503 429 500 q 432 545 432 532 q 413 630 432 602 q 355 657 395 657 q 298 630 315 657 q 281 542 281 604 q 281 515 281 525 q 282 498 281 506 m 139 868 l 273 1061 l 435 1061 l 569 868 l 472 868 l 354 970 l 236 868 l 139 868 z "},"ë":{"ha":692,"x_min":54,"x_max":633,"o":"m 424 275 l 629 275 l 629 256 q 557 48 629 118 q 343 -21 486 -21 q 213 -1 271 -21 q 122 56 155 20 q 70 165 85 97 q 54 385 54 234 q 70 616 54 551 q 125 725 86 682 q 219 785 162 765 q 353 806 277 806 q 486 784 430 806 q 578 718 543 762 q 621 631 608 682 q 633 457 633 580 l 633 363 l 277 363 q 276 354 276 359 q 273 285 273 304 q 291 170 273 202 q 351 138 309 138 q 408 162 389 138 q 427 237 427 187 q 425 269 427 248 q 424 275 424 273 m 282 498 l 429 498 q 429 503 429 500 q 432 545 432 532 q 413 630 432 602 q 355 657 395 657 q 298 630 315 657 q 281 542 281 604 q 281 515 281 525 q 282 498 281 506 m 391 875 l 391 1053 l 557 1053 l 557 875 l 391 875 m 151 875 l 151 1053 l 317 1053 l 317 875 l 151 875 z "},"ì":{"ha":367,"x_min":-42,"x_max":293,"o":"m 74 0 l 74 785 l 292 785 l 292 0 l 74 0 m 293 868 l 195 868 l -42 1061 l 158 1061 l 293 868 z "},"í":{"ha":367,"x_min":73,"x_max":408,"o":"m 74 0 l 74 785 l 292 785 l 292 0 l 74 0 m 73 868 l 208 1061 l 408 1061 l 171 868 l 73 868 z "},"î":{"ha":367,"x_min":-32,"x_max":398,"o":"m 74 0 l 74 785 l 292 785 l 292 0 l 74 0 m -32 868 l 102 1061 l 264 1061 l 398 868 l 301 868 l 183 970 l 65 868 l -32 868 z "},"ï":{"ha":367,"x_min":-20,"x_max":386,"o":"m 74 0 l 74 785 l 292 785 l 292 0 l 74 0 m 220 875 l 220 1053 l 386 1053 l 386 875 l 220 875 m -20 875 l -20 1053 l 146 1053 l 146 875 l -20 875 z "},"ð":{"ha":690,"x_min":53,"x_max":636,"o":"m 345 612 q 290 573 304 612 q 275 378 275 534 q 290 183 275 222 q 345 143 304 143 q 399 183 385 143 q 414 378 414 222 q 399 573 414 534 q 345 612 385 612 m 363 754 q 329 810 348 783 q 289 864 311 838 l 143 781 l 110 836 l 248 916 q 225 943 237 928 q 184 985 212 958 l 289 1080 q 339 1043 313 1064 q 392 999 366 1023 l 511 1069 l 546 1014 l 437 950 q 590 701 543 835 q 636 368 636 567 q 570 66 636 153 q 345 -21 504 -21 q 120 64 186 -21 q 53 353 53 149 q 110 670 53 583 q 313 757 167 757 q 354 755 325 757 q 363 754 359 754 z "},"ñ":{"ha":718,"x_min":75,"x_max":646,"o":"m 75 0 l 75 785 l 281 785 l 281 692 q 363 774 317 747 q 471 800 409 800 q 604 740 562 800 q 646 547 646 679 l 646 0 l 428 0 l 428 485 q 416 602 428 579 q 372 625 404 625 q 315 590 336 625 q 294 490 294 554 l 294 0 l 75 0 m 216 877 l 147 876 q 197 995 163 956 q 286 1034 232 1034 q 311 1032 299 1034 q 334 1028 322 1031 l 420 1006 q 438 1003 429 1004 q 456 1002 446 1002 q 494 1015 479 1002 q 515 1053 509 1028 l 584 1053 q 533 934 570 976 q 439 892 495 892 q 418 893 429 892 q 399 897 408 895 l 306 921 q 292 924 299 923 q 278 925 285 925 q 237 913 253 925 q 216 877 222 901 z "},"ò":{"ha":690,"x_min":53,"x_max":636,"o":"m 275 392 q 290 185 275 227 q 345 143 304 143 q 399 183 385 143 q 414 392 414 223 q 399 601 414 561 q 345 642 385 642 q 290 600 304 642 q 275 392 275 557 m 53 392 q 119 713 53 621 q 345 806 184 806 q 570 714 505 806 q 636 392 636 623 q 570 71 636 163 q 345 -21 505 -21 q 118 70 184 -21 q 53 392 53 161 m 458 868 l 361 868 l 123 1061 l 323 1061 l 458 868 z "},"ó":{"ha":690,"x_min":53,"x_max":636,"o":"m 275 392 q 290 185 275 227 q 345 143 304 143 q 399 183 385 143 q 414 392 414 223 q 399 601 414 561 q 345 642 385 642 q 290 600 304 642 q 275 392 275 557 m 53 392 q 119 713 53 621 q 345 806 184 806 q 570 714 505 806 q 636 392 636 623 q 570 71 636 163 q 345 -21 505 -21 q 118 70 184 -21 q 53 392 53 161 m 239 868 l 374 1061 l 574 1061 l 336 868 l 239 868 z "},"ô":{"ha":690,"x_min":53,"x_max":636,"o":"m 275 392 q 290 185 275 227 q 345 143 304 143 q 399 183 385 143 q 414 392 414 223 q 399 601 414 561 q 345 642 385 642 q 290 600 304 642 q 275 392 275 557 m 53 392 q 119 713 53 621 q 345 806 184 806 q 570 714 505 806 q 636 392 636 623 q 570 71 636 163 q 345 -21 505 -21 q 118 70 184 -21 q 53 392 53 161 m 134 868 l 268 1061 l 429 1061 l 564 868 l 467 868 l 349 970 l 231 868 l 134 868 z "},"õ":{"ha":690,"x_min":53,"x_max":636,"o":"m 275 392 q 290 185 275 227 q 345 143 304 143 q 399 183 385 143 q 414 392 414 223 q 399 601 414 561 q 345 642 385 642 q 290 600 304 642 q 275 392 275 557 m 53 392 q 119 713 53 621 q 345 806 184 806 q 570 714 505 806 q 636 392 636 623 q 570 71 636 163 q 345 -21 505 -21 q 118 70 184 -21 q 53 392 53 161 m 199 877 l 130 876 q 180 995 146 956 q 269 1034 215 1034 q 294 1032 282 1034 q 317 1028 305 1031 l 404 1006 q 421 1003 412 1004 q 439 1002 429 1002 q 477 1015 462 1002 q 498 1053 492 1028 l 567 1053 q 516 934 553 976 q 422 892 478 892 q 401 893 412 892 q 382 897 391 895 l 289 921 q 275 924 282 923 q 261 925 268 925 q 220 913 236 925 q 199 877 205 901 z "},"ö":{"ha":690,"x_min":53,"x_max":636,"o":"m 275 392 q 290 185 275 227 q 345 143 304 143 q 399 183 385 143 q 414 392 414 223 q 399 601 414 561 q 345 642 385 642 q 290 600 304 642 q 275 392 275 557 m 53 392 q 119 713 53 621 q 345 806 184 806 q 570 714 505 806 q 636 392 636 623 q 570 71 636 163 q 345 -21 505 -21 q 118 70 184 -21 q 53 392 53 161 m 386 875 l 386 1053 l 551 1053 l 551 875 l 386 875 m 146 875 l 146 1053 l 311 1053 l 311 875 l 146 875 z "},"÷":{"ha":1157,"x_min":172,"x_max":985,"o":"m 579 252 q 666 215 629 252 q 703 127 703 178 q 666 41 703 77 q 578 4 629 4 q 490 40 526 4 q 454 127 454 76 q 491 216 454 180 q 579 252 527 252 m 985 507 l 985 322 l 172 322 l 172 507 l 985 507 m 579 825 q 666 788 629 825 q 703 700 703 751 q 666 613 703 650 q 578 576 629 576 q 490 612 526 576 q 454 700 454 648 q 491 789 454 752 q 579 825 528 825 z "},"ø":{"ha":690,"x_min":-16,"x_max":703,"o":"m 703 804 l 603 659 q 631 544 623 609 q 640 385 640 479 q 571 71 640 165 q 343 -24 502 -24 q 247 -12 290 -24 q 168 25 205 0 l 82 -100 l -16 -39 l 92 119 q 61 244 71 177 q 52 399 52 312 q 120 712 52 616 q 343 808 189 808 q 442 796 397 808 q 526 757 487 783 l 604 869 l 703 804 m 422 425 l 278 200 q 300 148 282 166 q 347 129 319 129 q 406 176 389 129 q 424 342 424 224 q 424 391 424 374 q 422 425 423 408 m 271 346 l 416 568 q 393 635 410 612 q 346 657 375 657 q 287 609 304 657 q 269 433 269 562 q 270 392 269 421 q 271 346 271 363 z "},"ù":{"ha":718,"x_min":69,"x_max":640,"o":"m 640 785 l 640 0 l 435 0 l 435 93 q 353 11 398 37 q 245 -16 307 -16 q 112 45 155 -16 q 69 237 69 106 l 69 785 l 289 785 l 289 300 q 301 183 289 205 q 345 160 313 160 q 402 195 381 160 q 422 294 422 231 l 422 785 l 640 785 m 468 868 l 370 868 l 133 1061 l 333 1061 l 468 868 z "},"ú":{"ha":718,"x_min":69,"x_max":640,"o":"m 640 785 l 640 0 l 435 0 l 435 93 q 353 11 398 37 q 245 -16 307 -16 q 112 45 155 -16 q 69 237 69 106 l 69 785 l 289 785 l 289 300 q 301 183 289 205 q 345 160 313 160 q 402 195 381 160 q 422 294 422 231 l 422 785 l 640 785 m 248 868 l 383 1061 l 583 1061 l 346 868 l 248 868 z "},"û":{"ha":718,"x_min":69,"x_max":640,"o":"m 640 785 l 640 0 l 435 0 l 435 93 q 353 11 398 37 q 245 -16 307 -16 q 112 45 155 -16 q 69 237 69 106 l 69 785 l 289 785 l 289 300 q 301 183 289 205 q 345 160 313 160 q 402 195 381 160 q 422 294 422 231 l 422 785 l 640 785 m 143 868 l 277 1061 l 439 1061 l 573 868 l 476 868 l 358 970 l 240 868 l 143 868 z "},"ü":{"ha":718,"x_min":69,"x_max":640,"o":"m 640 785 l 640 0 l 435 0 l 435 93 q 353 11 398 37 q 245 -16 307 -16 q 112 45 155 -16 q 69 237 69 106 l 69 785 l 289 785 l 289 300 q 301 183 289 205 q 345 160 313 160 q 402 195 381 160 q 422 294 422 231 l 422 785 l 640 785 m 395 875 l 395 1053 l 561 1053 l 561 875 l 395 875 m 155 875 l 155 1053 l 321 1053 l 321 875 l 155 875 z "},"ý":{"ha":610,"x_min":11,"x_max":599,"o":"m 11 785 l 228 785 l 304 279 l 382 785 l 599 785 l 443 64 q 342 -204 398 -144 q 165 -264 287 -264 q 126 -262 148 -264 q 75 -256 104 -260 l 75 -92 q 79 -92 77 -92 q 113 -94 102 -94 q 168 -80 150 -94 q 186 -37 186 -66 q 172 43 186 -19 q 165 77 168 65 l 11 785 m 196 868 l 331 1061 l 531 1061 l 294 868 l 196 868 z "},"þ":{"ha":711,"x_min":79,"x_max":657,"o":"m 364 164 q 423 213 408 164 q 439 439 439 261 q 424 585 439 546 q 370 624 408 624 q 310 578 326 624 q 293 339 293 533 q 309 202 293 239 q 364 164 325 164 m 79 -264 l 79 1044 l 297 1044 l 297 699 q 369 777 328 751 q 465 803 411 803 q 543 786 507 803 q 604 739 578 770 q 645 641 633 703 q 657 411 657 580 q 613 61 657 144 q 453 -22 568 -22 q 366 0 404 -22 q 297 69 328 23 l 297 -264 l 79 -264 z "},"ÿ":{"ha":610,"x_min":11,"x_max":599,"o":"m 11 785 l 228 785 l 304 279 l 382 785 l 599 785 l 443 64 q 342 -204 398 -144 q 165 -264 287 -264 q 126 -262 148 -264 q 75 -256 104 -260 l 75 -92 q 79 -92 77 -92 q 113 -94 102 -94 q 168 -80 150 -94 q 186 -37 186 -66 q 172 43 186 -19 q 165 77 168 65 l 11 785 m 343 875 l 343 1053 l 509 1053 l 509 875 l 343 875 m 103 875 l 103 1053 l 269 1053 l 269 875 l 103 875 z "},"Ć":{"ha":828,"x_min":64,"x_max":754,"o":"m 513 404 l 753 404 q 754 384 753 395 q 754 351 754 373 q 670 67 754 160 q 414 -25 587 -25 q 239 9 312 -25 q 122 111 167 43 q 77 247 91 160 q 64 522 64 334 q 77 798 64 711 q 122 933 91 884 q 238 1035 166 1001 q 410 1069 310 1069 q 667 974 581 1069 q 753 689 753 879 l 753 679 l 515 680 q 491 829 514 786 q 414 872 468 872 q 333 820 355 872 q 311 542 311 767 l 311 522 q 333 225 311 280 q 414 171 355 171 q 491 211 469 171 q 513 358 513 250 l 513 404 m 304 1132 l 439 1325 l 639 1325 l 401 1132 l 304 1132 z "},"ć":{"ha":686,"x_min":53,"x_max":627,"o":"m 410 309 l 625 309 q 626 293 625 302 q 627 278 627 283 q 557 53 627 127 q 345 -21 487 -21 q 118 70 184 -21 q 53 392 53 161 q 119 714 53 623 q 345 806 184 806 q 556 732 488 806 q 624 503 624 659 l 624 489 l 412 489 l 412 511 q 397 612 412 582 q 346 642 382 642 q 290 602 304 642 q 275 392 275 562 q 290 185 275 229 q 345 140 304 140 q 395 172 379 140 q 411 272 411 203 q 410 290 411 277 q 410 309 410 302 m 241 868 l 376 1061 l 576 1061 l 339 868 l 241 868 z "},"Č":{"ha":828,"x_min":64,"x_max":754,"o":"m 513 404 l 753 404 q 754 384 753 395 q 754 351 754 373 q 670 67 754 160 q 414 -25 587 -25 q 239 9 312 -25 q 122 111 167 43 q 77 247 91 160 q 64 522 64 334 q 77 798 64 711 q 122 933 91 884 q 238 1035 166 1001 q 410 1069 310 1069 q 667 974 581 1069 q 753 689 753 879 l 753 679 l 515 680 q 491 829 514 786 q 414 872 468 872 q 333 820 355 872 q 311 542 311 767 l 311 522 q 333 225 311 280 q 414 171 355 171 q 491 211 469 171 q 513 358 513 250 l 513 404 m 199 1325 l 296 1325 l 414 1223 l 532 1325 l 629 1325 l 494 1132 l 333 1132 l 199 1325 z "},"č":{"ha":686,"x_min":53,"x_max":627,"o":"m 410 309 l 625 309 q 626 293 625 302 q 627 278 627 283 q 557 53 627 127 q 345 -21 487 -21 q 118 70 184 -21 q 53 392 53 161 q 119 714 53 623 q 345 806 184 806 q 556 732 488 806 q 624 503 624 659 l 624 489 l 412 489 l 412 511 q 397 612 412 582 q 346 642 382 642 q 290 602 304 642 q 275 392 275 562 q 290 185 275 229 q 345 140 304 140 q 395 172 379 140 q 411 272 411 203 q 410 290 411 277 q 410 309 410 302 m 136 1061 l 233 1061 l 351 960 l 469 1061 l 566 1061 l 432 868 l 271 868 l 136 1061 z "},"đ":{"ha":720,"x_min":60,"x_max":739,"o":"m 281 375 q 295 193 281 229 q 347 157 309 157 q 407 201 391 157 q 424 424 424 245 q 408 563 424 525 q 353 602 392 602 q 296 559 311 602 q 281 375 281 516 m 637 1044 l 637 968 l 739 968 l 739 846 l 637 846 l 637 0 l 436 0 l 436 86 q 360 6 406 34 q 260 -22 315 -22 q 164 -1 205 -22 q 98 62 123 21 q 68 159 77 98 q 60 385 60 220 q 105 705 60 623 q 265 787 151 787 q 351 766 314 787 q 419 696 387 744 l 419 846 l 264 846 l 264 968 l 419 968 l 419 1044 l 637 1044 z "},"Ğ":{"ha":800,"x_min":64,"x_max":726,"o":"m 726 572 l 726 0 l 558 0 l 547 65 q 466 2 511 23 q 366 -18 422 -18 q 248 5 302 -18 q 154 74 194 29 q 84 222 104 129 q 64 536 64 315 q 78 789 64 694 q 122 932 92 884 q 237 1035 165 1000 q 407 1069 309 1069 q 639 986 561 1069 q 717 736 717 902 q 716 717 717 730 q 715 697 715 705 l 484 697 l 484 710 q 464 839 484 800 q 401 878 445 878 q 331 830 350 878 q 311 608 311 783 l 311 505 l 311 433 q 330 214 311 259 q 397 168 348 168 q 469 208 447 168 q 492 338 492 248 q 491 369 492 358 q 490 390 491 380 l 395 390 l 395 572 l 726 572 m 186 1325 l 277 1325 q 314 1262 284 1282 q 400 1242 343 1242 q 487 1262 457 1242 q 524 1324 517 1282 l 614 1325 q 552 1178 604 1225 q 400 1132 500 1132 q 249 1179 301 1132 q 186 1325 197 1226 z "},"ğ":{"ha":707,"x_min":53,"x_max":629,"o":"m 273 496 l 273 439 q 288 243 273 285 q 340 201 302 201 q 394 238 379 201 q 410 395 410 275 l 410 427 q 395 587 410 554 q 342 621 380 621 q 290 591 307 621 q 273 496 273 562 m 629 785 l 629 82 q 618 -78 629 -26 q 579 -165 606 -130 q 478 -239 541 -214 q 325 -264 414 -264 q 120 -208 187 -264 q 53 -35 53 -151 l 269 -35 q 285 -99 269 -79 q 335 -119 301 -119 q 393 -93 377 -119 q 410 12 410 -66 l 410 104 q 327 47 366 65 q 248 29 288 29 q 146 60 191 29 q 78 149 102 91 q 59 236 65 179 q 53 385 53 294 q 57 541 53 472 q 69 652 62 609 q 131 760 82 718 q 244 803 180 803 q 341 777 296 803 q 429 697 387 751 l 429 785 l 629 785 m 140 1061 l 231 1061 q 268 998 238 1018 q 354 978 297 978 q 441 998 411 978 q 477 1061 471 1019 l 568 1061 q 506 915 557 961 q 354 868 454 868 q 203 915 255 868 q 140 1061 151 962 z "},"İ":{"ha":414,"x_min":85,"x_max":329,"o":"m 85 0 l 85 1044 l 329 1044 l 329 0 l 85 0 m 122 1136 l 122 1321 l 292 1321 l 292 1136 l 122 1136 z "},"ı":{"ha":367,"x_min":74,"x_max":292,"o":"m 74 0 l 74 785 l 292 785 l 292 0 l 74 0 z "},"Ł":{"ha":654,"x_min":0,"x_max":629,"o":"m 629 0 l 92 0 l 92 340 l 0 273 l 0 471 l 92 536 l 92 1044 l 336 1044 l 336 682 l 484 785 l 484 587 l 336 486 l 336 211 l 629 211 l 629 0 z "},"ł":{"ha":392,"x_min":0,"x_max":392,"o":"m 306 681 l 392 742 l 392 572 l 306 510 l 306 0 l 87 0 l 87 411 l 0 349 l 0 519 l 87 582 l 87 1044 l 306 1044 l 306 681 z "},"Œ":{"ha":1141,"x_min":64,"x_max":1080,"o":"m 503 819 q 466 859 488 846 q 416 872 444 872 q 336 829 359 872 q 313 677 313 787 q 312 553 313 644 q 311 404 311 463 q 334 220 311 269 q 414 171 357 171 q 465 185 444 171 q 503 231 487 200 l 503 819 m 578 49 q 489 -7 536 11 q 386 -25 443 -25 q 234 11 304 -25 q 122 111 164 47 q 77 247 91 160 q 64 522 64 334 q 77 798 64 711 q 122 933 91 884 q 232 1032 163 996 q 380 1068 301 1068 q 487 1050 439 1068 q 578 994 535 1032 l 578 1044 l 1080 1044 l 1080 842 l 755 842 l 755 650 l 1054 650 l 1054 440 l 755 440 l 755 212 l 1080 212 l 1080 0 l 578 0 l 578 49 z "},"œ":{"ha":1048,"x_min":54,"x_max":989,"o":"m 277 392 q 291 185 277 227 q 345 143 305 143 q 400 183 385 143 q 415 392 415 223 q 400 601 415 561 q 346 642 386 642 q 291 600 306 642 q 277 392 277 557 m 633 499 l 781 498 q 781 506 781 501 q 783 547 783 534 q 765 630 783 603 q 708 657 747 657 q 650 630 669 657 q 632 542 632 602 q 632 515 632 525 q 633 499 633 506 m 989 364 l 636 364 q 636 357 636 361 q 633 273 633 301 q 650 167 633 195 q 710 139 667 139 q 765 164 747 139 q 783 240 783 190 q 783 262 783 254 q 782 276 783 270 l 985 277 l 985 257 q 912 48 985 118 q 693 -21 839 -21 q 604 -9 647 -21 q 522 25 562 2 q 443 -13 486 -1 q 347 -25 399 -25 q 121 68 189 -25 q 54 392 54 162 q 121 714 54 616 q 339 811 188 811 q 434 798 388 811 q 526 758 481 785 q 620 794 572 783 q 725 806 669 806 q 846 783 792 806 q 933 718 899 761 q 976 629 964 681 q 989 458 989 576 l 989 364 z "},"Ş":{"ha":729,"x_min":50,"x_max":682,"o":"m 53 354 l 277 354 l 277 323 q 297 202 277 237 q 366 167 317 167 q 427 194 404 167 q 449 267 449 220 q 340 412 449 342 q 313 431 322 425 l 301 438 q 118 587 154 537 q 79 673 92 625 q 65 777 65 720 q 144 991 65 913 q 363 1069 224 1069 q 594 993 514 1069 q 673 771 673 916 q 673 754 673 765 q 672 737 672 743 l 453 737 l 453 750 q 432 854 453 819 q 370 889 410 889 q 314 864 335 889 q 293 799 293 840 q 412 658 293 732 q 446 636 434 644 q 472 619 455 631 q 636 482 600 538 q 670 400 659 446 q 682 301 682 355 q 601 60 682 144 q 368 -25 519 -25 q 130 56 210 -25 q 50 297 50 137 q 51 318 50 307 q 53 354 51 330 m 201 -296 l 201 -207 q 292 -223 250 -218 q 359 -229 334 -229 q 401 -218 388 -229 q 414 -182 414 -207 q 396 -151 414 -161 q 338 -140 377 -140 q 326 -141 334 -140 q 313 -142 317 -142 l 313 0 l 389 0 l 389 -56 q 501 -89 461 -56 q 541 -183 541 -122 q 497 -286 541 -249 q 374 -322 453 -322 q 282 -315 327 -322 q 201 -296 237 -309 z "},"ş":{"ha":610,"x_min":26,"x_max":581,"o":"m 26 249 l 222 248 q 246 159 226 187 q 307 131 267 131 q 361 150 340 131 q 382 200 382 170 q 367 244 382 227 q 302 285 353 261 q 269 301 292 290 q 103 404 150 356 q 52 480 70 437 q 35 571 35 524 q 107 742 35 678 q 304 806 180 806 q 503 744 433 806 q 572 568 572 683 l 572 554 l 380 555 q 362 639 379 614 q 309 664 346 664 q 256 646 275 664 q 236 599 236 628 q 334 504 236 547 q 355 494 348 498 q 535 377 490 434 q 581 228 581 320 q 507 44 581 109 q 298 -21 434 -21 q 98 45 170 -21 q 26 229 26 111 l 26 249 m 142 -296 l 142 -207 q 232 -223 191 -218 q 299 -229 274 -229 q 341 -218 328 -229 q 355 -182 355 -207 q 336 -151 355 -161 q 278 -140 317 -140 q 266 -141 275 -140 q 253 -142 258 -142 l 253 0 l 330 0 l 330 -56 q 441 -89 401 -56 q 481 -183 481 -122 q 437 -286 481 -249 q 314 -322 393 -322 q 222 -315 267 -322 q 142 -296 178 -309 z "},"Š":{"ha":729,"x_min":50,"x_max":682,"o":"m 53 354 l 277 354 l 277 323 q 297 202 277 237 q 366 167 317 167 q 427 194 404 167 q 449 267 449 220 q 340 412 449 342 q 313 431 322 425 l 301 438 q 118 587 154 537 q 79 673 92 625 q 65 777 65 720 q 144 991 65 913 q 363 1069 224 1069 q 594 993 514 1069 q 673 771 673 916 q 673 754 673 765 q 672 737 672 743 l 453 737 l 453 750 q 432 854 453 819 q 370 889 410 889 q 314 864 335 889 q 293 799 293 840 q 412 658 293 732 q 446 636 434 644 q 472 619 455 631 q 636 482 600 538 q 670 400 659 446 q 682 301 682 355 q 601 60 682 144 q 368 -25 519 -25 q 130 56 210 -25 q 50 297 50 137 q 51 318 50 307 q 53 354 51 330 m 151 1325 l 248 1325 l 366 1223 l 484 1325 l 581 1325 l 446 1132 l 285 1132 l 151 1325 z "},"š":{"ha":610,"x_min":26,"x_max":581,"o":"m 26 249 l 222 248 q 246 159 226 187 q 307 131 267 131 q 361 150 340 131 q 382 200 382 170 q 367 244 382 227 q 302 285 353 261 q 269 301 292 290 q 103 404 150 356 q 52 480 70 437 q 35 571 35 524 q 107 742 35 678 q 304 806 180 806 q 503 744 433 806 q 572 568 572 683 l 572 554 l 380 555 q 362 639 379 614 q 309 664 346 664 q 256 646 275 664 q 236 599 236 628 q 334 504 236 547 q 355 494 348 498 q 535 377 490 434 q 581 228 581 320 q 507 44 581 109 q 298 -21 434 -21 q 98 45 170 -21 q 26 229 26 111 l 26 249 m 91 1061 l 188 1061 l 306 960 l 424 1061 l 521 1061 l 387 868 l 225 868 l 91 1061 z "},"Ÿ":{"ha":713,"x_min":-9,"x_max":721,"o":"m 231 0 l 231 443 l -9 1044 l 253 1044 l 354 714 l 456 1044 l 721 1044 l 481 443 l 481 0 l 231 0 m 394 1139 l 394 1316 l 559 1316 l 559 1139 l 394 1139 m 154 1139 l 154 1316 l 319 1316 l 319 1139 l 154 1139 z "},"Ž":{"ha":694,"x_min":45,"x_max":650,"o":"m 45 0 l 45 195 l 364 844 l 71 844 l 71 1044 l 635 1044 l 635 863 l 314 214 l 650 214 l 650 0 l 45 0 m 132 1325 l 229 1325 l 347 1223 l 465 1325 l 562 1325 l 428 1132 l 267 1132 l 132 1325 z "},"ž":{"ha":551,"x_min":25,"x_max":526,"o":"m 25 0 l 25 155 l 292 604 l 43 604 l 43 785 l 526 785 l 526 619 l 262 176 l 526 176 l 526 0 l 25 0 m 62 1061 l 159 1061 l 277 960 l 395 1061 l 492 1061 l 357 868 l 196 868 l 62 1061 z "},"ƒ":{"ha":745,"x_min":17,"x_max":680,"o":"m 250 526 l 106 526 l 106 679 l 275 679 q 370 965 303 878 q 559 1051 437 1051 q 614 1047 584 1051 q 680 1034 644 1042 l 643 859 q 620 866 631 863 q 599 868 609 868 q 533 824 557 868 q 500 679 510 779 l 637 679 l 637 526 l 475 526 l 421 182 q 382 -21 399 44 q 343 -135 366 -87 q 259 -232 314 -197 q 138 -267 205 -267 q 81 -260 112 -267 q 17 -240 51 -254 l 41 -58 q 71 -71 57 -66 q 96 -75 84 -75 q 146 -47 128 -75 q 175 54 163 -19 l 250 526 z "},"ˆ":{"ha":694,"x_min":132,"x_max":562,"o":"m 132 868 l 267 1061 l 428 1061 l 562 868 l 465 868 l 347 970 l 229 868 l 132 868 z "},"ˇ":{"ha":694,"x_min":132,"x_max":562,"o":"m 132 1061 l 229 1061 l 347 960 l 465 1061 l 562 1061 l 428 868 l 267 868 l 132 1061 z "},"˘":{"ha":694,"x_min":134,"x_max":561,"o":"m 134 1061 l 224 1061 q 261 998 231 1018 q 347 978 290 978 q 434 998 404 978 q 471 1061 465 1019 l 561 1061 q 499 915 551 961 q 347 868 448 868 q 196 915 248 868 q 134 1061 144 962 z "},"˙":{"ha":694,"x_min":262,"x_max":432,"o":"m 262 872 l 262 1057 l 432 1057 l 432 872 l 262 872 z "},"˚":{"ha":694,"x_min":193,"x_max":503,"o":"m 289 1015 q 306 975 289 991 q 349 958 323 958 q 390 975 374 958 q 407 1015 407 991 q 390 1058 407 1041 q 349 1075 374 1075 q 306 1058 323 1075 q 289 1015 289 1041 m 193 1018 q 238 1127 193 1082 q 347 1173 283 1173 q 457 1127 412 1173 q 503 1018 503 1082 q 457 907 503 953 q 347 861 412 861 q 238 907 283 861 q 193 1018 193 952 z "},"˛":{"ha":694,"x_min":227,"x_max":460,"o":"m 428 0 q 368 -68 387 -37 q 349 -132 349 -100 q 361 -173 349 -159 q 399 -186 373 -186 l 460 -186 l 460 -313 l 418 -313 q 270 -282 313 -313 q 227 -182 227 -252 q 258 -87 227 -132 q 355 0 290 -43 l 428 0 z "},"˜":{"ha":694,"x_min":129,"x_max":566,"o":"m 197 877 l 129 876 q 179 995 144 956 q 268 1034 214 1034 q 292 1032 281 1034 q 315 1028 304 1031 l 402 1006 q 419 1003 411 1004 q 437 1002 428 1002 q 476 1015 460 1002 q 497 1053 491 1028 l 566 1053 q 514 934 552 976 q 421 892 477 892 q 400 893 410 892 q 380 897 390 895 l 288 921 q 274 924 281 923 q 260 925 267 925 q 219 913 235 925 q 197 877 203 901 z "},"˝":{"ha":694,"x_min":184,"x_max":676,"o":"m 389 868 l 498 1061 l 676 1061 l 464 868 l 389 868 m 184 868 l 272 1061 l 441 1061 l 250 868 l 184 868 z "},"Ω":{"ha":1157,"x_min":24,"x_max":1133,"o":"m 1133 237 l 1133 0 l 685 0 l 685 273 q 753 393 730 328 q 777 530 777 458 q 722 709 777 642 q 578 775 668 775 q 434 709 488 775 q 380 530 380 642 q 404 393 380 458 q 472 273 427 328 l 472 0 l 24 0 l 24 237 l 275 237 q 129 379 178 293 q 81 583 81 466 q 217 903 81 781 q 578 1025 354 1025 q 939 902 802 1025 q 1076 583 1076 780 q 1028 379 1076 466 q 882 237 979 293 l 1133 237 z "},"π":{"ha":1164,"x_min":28,"x_max":1154,"o":"m 1126 574 l 1004 574 l 924 0 l 640 0 l 721 574 l 567 574 l 486 0 l 203 0 l 283 574 l 264 574 q 225 549 242 574 q 203 484 208 524 l 28 484 q 114 684 52 630 q 326 737 176 737 l 1154 737 l 1126 574 z "},"–":{"ha":694,"x_min":0,"x_max":694,"o":"m 0 313 l 0 471 l 694 471 l 694 313 l 0 313 z "},"—":{"ha":1389,"x_min":0,"x_max":1389,"o":"m 0 313 l 0 471 l 1389 471 l 1389 313 l 0 313 z "},"‘":{"ha":379,"x_min":83,"x_max":296,"o":"m 296 636 l 83 636 l 83 836 q 136 1000 83 942 q 296 1069 189 1058 l 296 990 q 211 947 237 979 q 184 859 184 916 l 296 859 l 296 636 z "},"’":{"ha":379,"x_min":83,"x_max":296,"o":"m 83 1044 l 296 1044 l 296 846 q 243 682 296 740 q 83 612 190 624 l 83 690 q 168 733 141 702 q 196 823 195 765 l 83 823 l 83 1044 z "},"‚":{"ha":379,"x_min":83,"x_max":296,"o":"m 83 239 l 296 239 l 296 39 q 243 -125 296 -67 q 83 -195 190 -183 l 83 -115 q 169 -73 142 -104 q 196 16 195 -42 l 83 17 l 83 239 z "},"“":{"ha":708,"x_min":83,"x_max":625,"o":"m 296 636 l 83 636 l 83 836 q 136 999 83 941 q 296 1068 189 1057 l 296 990 q 211 947 238 979 q 183 857 184 916 l 296 857 l 296 636 m 625 636 l 412 636 l 412 836 q 465 999 412 941 q 625 1068 518 1057 l 625 990 q 541 947 567 979 q 513 857 514 916 l 625 857 l 625 636 z "},"”":{"ha":708,"x_min":83,"x_max":625,"o":"m 412 1044 l 625 1044 l 625 846 q 572 682 625 740 q 412 612 519 624 l 412 690 q 497 733 471 702 q 525 823 524 764 l 412 823 l 412 1044 m 83 1044 l 296 1044 l 296 846 q 243 682 296 740 q 83 612 190 624 l 83 690 q 168 733 141 702 q 196 823 195 765 l 83 823 l 83 1044 z "},"„":{"ha":708,"x_min":83,"x_max":625,"o":"m 412 239 l 625 239 l 625 39 q 572 -125 625 -67 q 412 -195 519 -183 l 412 -115 q 497 -73 471 -104 q 525 16 524 -43 l 412 17 l 412 239 m 83 239 l 296 239 l 296 39 q 243 -125 296 -67 q 83 -195 190 -183 l 83 -115 q 169 -73 142 -104 q 196 16 195 -42 l 83 17 l 83 239 z "},"†":{"ha":694,"x_min":47,"x_max":647,"o":"m 241 -229 l 241 558 l 47 558 l 47 726 l 241 726 l 241 1044 l 450 1044 l 450 726 l 647 726 l 647 558 l 450 558 l 450 -229 l 241 -229 z "},"‡":{"ha":694,"x_min":47,"x_max":647,"o":"m 244 -232 l 244 72 l 47 72 l 47 244 l 244 244 l 244 575 l 47 575 l 47 743 l 244 743 l 244 1044 l 449 1044 l 449 743 l 647 743 l 647 575 l 449 575 l 449 244 l 647 244 l 647 72 l 449 72 l 449 -232 l 244 -232 z "},"•":{"ha":819,"x_min":208,"x_max":610,"o":"m 208 517 q 267 659 208 600 q 410 717 326 717 q 551 658 492 717 q 610 517 610 600 q 550 375 610 434 q 408 315 491 315 q 267 374 325 315 q 208 517 208 433 z "},"…":{"ha":1389,"x_min":111,"x_max":1278,"o":"m 111 0 l 111 239 l 352 239 l 352 0 l 111 0 m 574 0 l 574 239 l 814 239 l 814 0 l 574 0 m 1038 0 l 1038 239 l 1278 239 l 1278 0 l 1038 0 z "},"‰":{"ha":1668,"x_min":54,"x_max":1607,"o":"m 1318 253 q 1332 142 1318 173 q 1381 111 1346 111 q 1429 142 1415 111 q 1443 253 1443 173 q 1429 365 1443 333 q 1381 396 1415 396 q 1332 365 1346 396 q 1318 253 1318 333 m 1154 253 q 1206 464 1154 401 q 1381 526 1259 526 q 1555 464 1502 526 q 1607 253 1607 401 q 1555 43 1607 105 q 1381 -20 1503 -20 q 1206 43 1259 -20 q 1154 253 1154 105 m 804 253 q 818 142 804 173 q 867 111 832 111 q 916 143 901 111 q 930 253 930 174 q 916 364 930 332 q 867 396 901 396 q 818 365 832 396 q 804 253 804 333 m 640 253 q 693 464 640 401 q 867 526 745 526 q 1041 464 988 526 q 1093 253 1093 401 q 1041 43 1093 105 q 867 -20 989 -20 q 692 43 745 -20 q 640 253 640 105 m 257 -20 l 758 1051 l 890 1051 l 390 -20 l 257 -20 m 218 779 q 232 668 218 699 q 281 636 246 636 q 329 668 315 636 q 343 779 343 699 q 329 890 343 859 q 281 921 315 921 q 232 890 246 921 q 218 779 218 859 m 54 779 q 106 989 54 926 q 281 1051 159 1051 q 455 989 403 1051 q 507 779 507 926 q 455 568 507 631 q 281 505 402 505 q 106 568 159 505 q 54 779 54 631 z "},"‹":{"ha":411,"x_min":77,"x_max":329,"o":"m 329 479 l 193 395 l 329 302 l 329 129 l 77 294 l 77 494 l 329 656 l 329 479 z "},"›":{"ha":411,"x_min":82,"x_max":335,"o":"m 82 479 l 82 656 l 335 494 l 335 294 l 82 129 l 82 302 l 218 395 l 82 479 z "},"₣":{"ha":1193,"x_min":85,"x_max":1160,"o":"m 85 0 l 85 1044 l 654 1044 l 654 842 l 330 842 l 330 652 l 631 652 l 631 441 l 330 441 l 330 0 l 85 0 m 782 0 l 782 785 l 983 785 l 983 675 q 1062 764 1019 734 q 1160 800 1105 795 l 1160 551 q 1125 557 1141 555 q 1095 559 1108 559 q 1021 522 1042 559 q 1000 376 1000 485 l 1000 0 l 782 0 z "},"™":{"ha":1157,"x_min":111,"x_max":1015,"o":"m 708 996 l 775 815 l 842 996 l 1015 996 l 1015 616 l 892 616 l 892 865 l 799 616 l 751 616 l 659 865 l 659 616 l 534 616 l 534 996 l 708 996 m 468 996 l 468 893 l 358 893 l 358 616 l 221 616 l 221 893 l 111 893 l 111 996 l 468 996 z "},"∂":{"ha":772,"x_min":25,"x_max":745,"o":"m 522 485 q 546 627 539 571 q 553 729 553 684 q 535 837 553 800 q 482 873 517 873 q 444 859 460 873 q 408 811 427 845 q 346 730 378 757 q 278 704 314 704 q 208 729 236 704 q 180 794 180 755 q 250 895 180 853 q 419 936 319 936 q 658 826 571 936 q 745 521 745 715 q 631 135 745 285 q 338 -16 517 -16 q 109 63 192 -16 q 25 278 25 141 q 111 509 25 416 q 319 602 196 602 q 436 572 385 602 q 522 485 488 543 m 471 375 q 448 492 471 452 q 380 532 425 532 q 278 436 319 532 q 237 196 237 341 q 260 79 237 118 q 329 40 283 40 q 430 135 390 40 q 471 375 471 230 z "},"∆":{"ha":1021,"x_min":-4,"x_max":1023,"o":"m 650 210 l 510 688 l 370 210 l 650 210 m 672 999 l 1023 0 l -4 0 l 347 999 l 672 999 z "},"∏":{"ha":1145,"x_min":94,"x_max":1043,"o":"m 94 999 l 1043 999 l 1043 -267 l 722 -267 l 722 733 l 415 733 l 415 -267 l 94 -267 l 94 999 z "},"∑":{"ha":1074,"x_min":40,"x_max":1040,"o":"m 54 999 l 982 999 l 982 760 l 454 760 l 833 382 l 467 -25 l 1040 -25 l 1040 -267 l 40 -267 l 40 -131 l 490 370 l 54 796 l 54 999 z "},"−":{"ha":1157,"x_min":172,"x_max":985,"o":"m 985 509 l 985 321 l 172 321 l 172 509 l 985 509 z "},"∕":{"ha":232,"x_min":-232,"x_max":463,"o":"m -117 -21 l -232 -21 l 347 1051 l 463 1051 l -117 -21 z "},"∙":{"ha":374,"x_min":61,"x_max":313,"o":"m 61 517 q 97 606 61 570 q 186 642 133 642 q 276 606 239 642 q 313 517 313 570 q 276 426 313 463 q 186 389 239 389 q 97 426 133 389 q 61 517 61 463 z "},"√":{"ha":946,"x_min":57,"x_max":949,"o":"m 949 1178 l 949 1061 l 890 1061 l 492 -28 l 395 -28 l 191 533 l 85 493 l 57 597 l 325 692 l 467 285 l 794 1178 l 949 1178 z "},"∞":{"ha":1157,"x_min":123,"x_max":1035,"o":"m 661 380 q 726 322 688 342 q 810 302 763 302 q 903 332 867 302 q 939 406 939 361 q 906 480 939 450 q 827 510 873 510 q 744 480 782 510 q 661 380 705 450 m 496 443 q 431 502 468 482 q 347 521 395 521 q 255 492 290 521 q 220 416 220 463 q 252 343 220 373 q 332 314 284 314 q 415 344 377 314 q 496 443 453 374 m 581 536 q 682 666 627 623 q 800 708 736 708 q 966 623 897 708 q 1035 411 1035 537 q 974 197 1035 279 q 815 115 912 115 q 704 151 755 115 q 576 288 652 187 q 477 158 531 200 q 358 115 423 115 q 192 201 260 115 q 123 412 123 286 q 184 626 123 545 q 342 708 245 708 q 451 672 399 708 q 581 536 503 636 z "},"∫":{"ha":903,"x_min":35,"x_max":871,"o":"m 257 -165 q 294 -137 276 -165 q 322 -60 311 -109 q 340 201 335 3 q 346 400 342 327 q 444 903 361 749 q 693 1057 526 1057 q 822 1018 773 1057 q 871 916 871 978 q 840 839 871 869 q 761 810 808 810 q 692 837 715 810 q 669 918 669 865 q 670 925 669 920 q 671 936 671 931 q 665 962 671 954 q 647 970 659 970 q 562 522 577 970 q 559 462 560 482 q 535 133 552 235 q 485 -47 518 31 q 372 -201 441 -149 q 211 -253 303 -253 q 83 -214 131 -253 q 35 -111 35 -176 q 65 -34 35 -62 q 147 -5 96 -5 q 213 -31 189 -5 q 236 -102 236 -56 q 235 -122 236 -110 q 235 -138 235 -134 q 240 -158 235 -151 q 257 -165 246 -165 z "},"≈":{"ha":1157,"x_min":121,"x_max":1038,"o":"m 1038 210 q 905 141 966 163 q 785 119 844 119 q 595 163 726 119 q 380 207 464 207 q 263 182 325 207 q 121 100 202 157 l 121 302 q 265 376 199 353 q 399 399 332 399 q 608 355 479 399 q 790 311 736 311 q 905 335 846 311 q 1038 412 963 358 l 1038 210 m 1038 525 q 905 456 966 477 q 786 435 845 435 q 595 478 726 435 q 380 522 465 522 q 263 498 323 522 q 121 416 203 473 l 121 619 q 266 691 199 669 q 399 714 332 714 q 608 671 479 714 q 790 628 736 628 q 906 652 848 628 q 1038 729 965 675 l 1038 525 z "},"≠":{"ha":1157,"x_min":172,"x_max":985,"o":"m 939 757 l 863 663 l 985 663 l 985 486 l 742 486 l 625 343 l 985 343 l 985 165 l 507 165 l 343 -37 l 208 71 l 285 165 l 172 165 l 172 343 l 403 343 l 518 486 l 172 486 l 172 663 l 640 663 l 806 867 l 939 757 z "},"≤":{"ha":1157,"x_min":172,"x_max":986,"o":"m 986 160 l 986 -24 l 172 -24 l 172 160 l 986 160 m 985 677 l 507 536 l 985 395 l 985 204 l 172 456 l 172 616 l 985 869 l 985 677 z "},"≥":{"ha":1157,"x_min":172,"x_max":986,"o":"m 986 160 l 986 -24 l 172 -24 l 172 160 l 986 160 m 985 616 l 985 456 l 174 204 l 174 395 l 652 536 l 174 677 l 174 869 l 985 616 z "},"◊":{"ha":686,"x_min":4,"x_max":682,"o":"m 343 956 l 82 399 l 343 -158 l 604 399 l 343 956 m 343 1121 l 682 399 l 343 -323 l 4 399 l 343 1121 z "},"":{"ha":1097,"x_min":77,"x_max":1021,"o":"m 567 825 q 566 834 566 829 q 566 850 566 840 q 630 1005 566 934 q 790 1095 694 1077 q 791 1079 791 1088 q 791 1053 791 1070 q 721 893 791 964 q 583 823 651 823 l 578 823 q 573 824 576 823 q 567 825 570 825 m 1021 273 q 882 41 943 106 q 743 -24 820 -24 q 654 -1 709 -24 q 571 21 599 21 q 482 -1 541 21 q 396 -24 424 -24 q 309 6 353 -24 q 221 96 265 36 q 114 296 152 191 q 77 500 77 401 q 161 742 77 648 q 380 835 246 835 q 486 812 427 835 q 570 789 545 789 q 652 812 593 789 q 755 835 711 835 q 890 808 831 835 q 999 725 950 781 q 896 626 930 681 q 863 503 863 572 q 903 367 863 426 q 1021 273 944 308 z "},"":{"ha":772,"x_min":22,"x_max":699,"o":"m 111 0 l 111 618 l 22 618 l 22 785 l 111 785 q 111 805 111 792 q 110 823 110 818 q 162 998 110 947 q 342 1048 215 1048 q 381 1047 361 1048 q 425 1044 402 1046 l 425 886 q 414 887 420 887 q 399 888 409 888 q 345 870 361 888 q 329 811 329 852 q 329 795 329 801 q 331 785 330 790 l 425 785 l 425 618 l 330 618 l 330 0 l 111 0 m 481 863 l 481 1053 l 699 1053 l 699 863 l 481 863 m 481 0 l 481 785 l 699 785 l 699 0 l 481 0 z "},"":{"ha":772,"x_min":22,"x_max":699,"o":"m 111 0 l 111 618 l 22 618 l 22 785 l 111 785 q 111 805 111 792 q 110 823 110 818 q 162 998 110 947 q 342 1048 215 1048 q 381 1047 361 1048 q 425 1044 402 1046 l 425 886 q 414 887 420 887 q 399 888 409 888 q 345 870 361 888 q 329 811 329 852 q 329 795 329 801 q 331 785 330 790 l 425 785 l 425 618 l 330 618 l 330 0 l 111 0 m 481 0 l 481 1044 l 699 1044 l 699 0 l 481 0 z "}}}
